<svg width="14" height="14" viewBox="0 0 14 14" fill="none" xmlns="http://www.w3.org/2000/svg">
<path fill-rule="evenodd" clip-rule="evenodd" d="M0.845215 11.949V10.943C0.883238 10.196 1.33227 9.53174 2.01121 9.218C5.2129 7.93196 8.78753 7.93196 11.9892 9.218C12.6682 9.53174 13.1172 10.196 13.1552 10.943V11.949C13.155 12.4936 12.9382 13.0157 12.5528 13.4004C12.1673 13.7851 11.6448 14.0008 11.1002 14H2.90021C2.35564 14.0008 1.83309 13.7851 1.44765 13.4004C1.0622 13.0157 0.84548 12.4936 0.845215 11.949ZM7.00021 1.47243e-07C5.61686 -0.000404342 4.3695 0.832595 3.83983 2.11053C3.31017 3.38846 3.60252 4.85963 4.58056 5.83795C5.55859 6.81627 7.02967 7.10906 8.30776 6.57976C9.58585 6.05047 10.4192 4.80335 10.4192 3.42C10.4195 2.51305 10.0594 1.64316 9.41817 1.00176C8.77695 0.360352 7.90716 1.0845e-07 7.00021 1.47243e-07Z" fill="#C1C7D0"/>
</svg>
