<svg width="49" height="44" viewBox="0 0 49 44" fill="none" xmlns="http://www.w3.org/2000/svg">
<path d="M45.7999 26.1669C45.7999 27.0307 45.4486 27.8119 44.8807 28.3774C44.3118 28.9429 43.5272 29.2927 42.6607 29.2927H6.33922C4.60616 29.2927 3.2 27.8936 3.2 26.1669C3.2 25.7044 3.3005 25.2662 3.48106 24.8717C3.63716 24.5311 3.85329 24.2211 4.11922 23.9564C4.68809 23.3909 5.47269 23.0412 6.33922 23.0412H42.6608C43.9303 23.0412 45.0242 23.7912 45.5189 24.8717C45.7048 25.2784 45.8006 25.7201 45.7999 26.1669Z" fill="#884D00"/>
<path d="M45.5189 24.8717C45.3625 25.2119 45.1464 25.5215 44.8808 25.7861C44.3119 26.3516 43.5273 26.7014 42.6608 26.7014H6.33922C5.07069 26.7014 3.97681 25.9513 3.48106 24.8718C3.63712 24.5312 3.85326 24.2212 4.11922 23.9565C4.68809 23.391 5.47269 23.0412 6.33922 23.0412H42.6608C43.9302 23.0411 45.0241 23.7913 45.5189 24.8717Z" fill="#AA6100"/>
<path d="M48.5 31.8159C48.5 35.8433 46.6274 38.8359 43.6004 40.8209C40.5725 42.8069 36.3902 43.7854 31.7707 43.7854H17.2292C7.99035 43.7854 0.5 39.8707 0.5 31.8159C0.5 31.367 0.612219 30.9414 0.815188 30.5586C0.986937 30.2322 1.22403 29.9377 1.51194 29.687C2.1365 29.1419 3.00106 28.8048 3.95441 28.8048H45.0457C46.4382 28.8048 47.6384 29.5237 48.1849 30.5586C48.3878 30.9415 48.5 31.3671 48.5 31.8159Z" fill="#FFA733"/>
<path d="M48.1848 30.5587C47.533 33.2404 45.8995 35.3293 43.6004 36.8373C40.5725 38.8233 36.3902 39.8017 31.7707 39.8017H17.2292C9.10072 39.8017 2.32672 36.7721 0.815188 30.5586C0.986937 30.2322 1.22403 29.9377 1.51194 29.687C2.1365 29.1419 3.00106 28.8049 3.95441 28.8049H45.0457C46.4382 28.8049 47.6383 29.5239 48.1848 30.5587Z" fill="#FFB655"/>
<path d="M37.8488 21.7295L29.7281 29.8154C29.5283 30.0141 29.3101 30.1934 29.0762 30.3508C27.3568 31.5099 25.0013 31.3322 23.478 29.8154L15.3573 21.7295H37.8488Z" fill="#EEBF00"/>
<path d="M37.8488 21.7295L29.7281 29.8154C29.5283 30.0141 29.3101 30.1934 29.0762 30.3508C28.4373 30.1343 27.8573 29.7739 27.3812 29.2976L19.7806 21.7295H37.8488Z" fill="#FFD422"/>
<path d="M47.5886 22.8576C47.5886 23.2812 47.5183 23.7145 47.3661 24.1372C46.7698 25.7938 45.1735 26.437 43.9293 25.5217L42.4373 24.4248C41.3961 23.6582 40.068 23.972 39.3147 25.1633L39.2512 25.2633C38.5281 26.4079 37.2673 26.7479 36.2379 26.0775L32.8967 23.902C32.1258 23.4007 31.2017 23.4551 30.4719 24.0468L27.7943 26.2155C27.0253 26.8383 26.0457 26.8645 25.2562 26.2825L22.2019 24.0283C21.4212 23.4522 20.4533 23.4706 19.6873 24.0769L16.9062 26.2758C16.1597 26.8656 15.221 26.8995 14.4492 26.3661L10.8484 23.8749C10.1399 23.3852 9.28616 23.3715 8.56794 23.8389L5.20925 26.0261C2.97266 26.3127 1.88469 24.6775 1.88469 24.6775C1.349 23.7505 1.29528 22.6516 1.58516 21.7295C1.92959 20.6277 2.76397 19.7786 3.84903 19.7786H45.1521C46.2157 19.7786 47.0656 20.6151 47.415 21.7247C47.5306 22.0913 47.5892 22.4733 47.5886 22.8576Z" fill="#6DC82A"/>
<path d="M47.4149 21.7247C47.4003 21.7732 47.3837 21.8208 47.3662 21.8695C46.7699 23.527 45.1736 24.1703 43.9294 23.255L42.4374 22.1571C41.3962 21.3914 40.0681 21.7053 39.3148 22.8955L39.2513 22.9966C38.5282 24.1411 37.2674 24.4812 36.238 23.8107L32.8968 21.6353C32.1259 21.1329 31.2018 21.1883 30.472 21.78L27.7944 23.9487C27.0254 24.5715 26.0457 24.5968 25.2563 24.0148L22.202 21.7606C21.4213 21.1845 20.4534 21.2039 19.6873 21.8092L16.9062 24.0089C16.1597 24.5978 15.221 24.6327 14.4492 24.0993L10.8484 21.608C10.1399 21.1174 9.28616 21.1037 8.56794 21.5721L5.20925 23.7582C2.97266 24.0458 1.88469 22.4096 1.88469 22.4096C1.76074 22.1942 1.66032 21.9662 1.58516 21.7295C1.92959 20.6277 2.76397 19.7784 3.84903 19.7784H45.1521C46.2156 19.7785 47.0655 20.6151 47.4149 21.7247Z" fill="#7ED63E"/>
<path d="M46.7552 17.7789C46.7619 18.093 46.7215 18.4064 46.6352 18.7087C46.2576 20.0185 45.0456 20.9765 43.6092 20.9765C37.9691 20.9765 22.9465 20.8502 20.6807 20.925C20.63 20.9269 20.5793 20.9289 20.5295 20.9298C17.6684 21.0376 17.0166 21.4943 17.0166 23.013V28.5697C17.0166 28.8554 16.9004 29.1148 16.7122 29.3023C16.6158 29.3986 16.5013 29.4749 16.3752 29.5269C16.2491 29.5789 16.1139 29.6056 15.9774 29.6054C15.4026 29.6054 14.9371 30.0689 14.9371 30.6412V33.0615C14.9371 33.3073 14.9079 33.5454 14.8512 33.7747C14.5303 35.0981 13.3309 36.0804 11.8906 36.0804H11.8136C10.1761 36.0804 8.85097 34.7561 8.85584 33.1257L8.86953 28.7446C8.86976 28.5846 8.90168 28.4262 8.96347 28.2785C9.02526 28.1308 9.1157 27.9967 9.22962 27.8838C9.3434 27.7705 9.4785 27.6807 9.6272 27.6195C9.7759 27.5583 9.93526 27.527 10.0962 27.5272C10.7734 27.5272 11.3228 26.9802 11.3228 26.3058V23.013C11.3228 21.8879 10.4075 20.9765 9.27753 20.9765H5.45028C3.728 20.9765 2.27891 19.623 2.24375 17.9081C2.20859 16.1485 3.63134 14.7105 5.39075 14.7105H43.5468C45.27 14.7105 46.7211 16.064 46.7552 17.7789Z" fill="#FF3501"/>
<path d="M46.7552 17.7789C46.7619 18.093 46.7215 18.4064 46.6352 18.7087C40.6643 18.7029 26.3969 18.5853 24.1936 18.6572C21.2037 18.7553 20.5295 19.2013 20.5295 20.7462V20.9298C17.6684 21.0376 17.0166 21.4943 17.0166 23.013V28.5697C17.0166 28.8554 16.9004 29.1148 16.7122 29.3023C16.6158 29.3986 16.5013 29.4749 16.3752 29.5269C16.2491 29.5789 16.1139 29.6056 15.9774 29.6054C15.4026 29.6054 14.9371 30.0689 14.9371 30.6412V33.0615C14.9371 33.3073 14.9079 33.5454 14.8512 33.7747C13.4402 33.5483 12.3639 32.327 12.3687 30.8579L12.3824 26.4778C12.3826 26.3178 12.4144 26.1593 12.4762 26.0116C12.538 25.8639 12.6285 25.7297 12.7425 25.6169C12.8563 25.5036 12.9914 25.4138 13.1401 25.3526C13.2888 25.2915 13.4482 25.2601 13.6091 25.2603C14.2863 25.2603 14.8357 24.7133 14.8357 24.039V20.7461C14.8357 19.621 13.9204 18.7096 12.7904 18.7096H8.96319C7.24091 18.7096 5.79181 17.3562 5.75666 15.6413C5.74983 15.3267 5.79063 15.0129 5.87769 14.7105H43.5468C45.27 14.7105 46.7211 16.064 46.7552 17.7789Z" fill="#FF5023"/>
<path d="M28.7535 11.5255L21.7911 18.461C21.0934 19.1556 20.2708 19.6502 19.3945 19.9427C17.234 20.6695 14.7516 20.1749 13.0322 18.461L6.06697 11.5255H28.7535Z" fill="#EEBF00"/>
<path d="M28.7535 11.5255L21.7911 18.461C21.0934 19.1556 20.2708 19.6502 19.3945 19.9427C18.5191 19.6502 17.6966 19.1556 16.9998 18.461L10.0345 11.5255H28.7535Z" fill="#FFD422"/>
<path d="M48.5 12.501C48.5 12.5526 48.498 12.6031 48.4951 12.6536C48.4585 13.2846 48.19 13.8802 47.7408 14.3267C47.5003 14.5669 47.2145 14.7572 46.8998 14.887C46.5852 15.0167 46.2478 15.0832 45.9072 15.0827H3.09275C1.66119 15.0826 0.5 13.9264 0.5 12.501C0.5 9.4074 1.94028 7.07836 4.11538 5.3265C5.88059 3.90406 8.13078 2.86145 10.4864 2.09684C17.0771 -0.0397142 24.5 5.19242e-05 24.5 5.19242e-05C24.5 5.19242e-05 48.5 -0.129141 48.5 12.501Z" fill="#FFA733"/>
<path d="M48.5 12.501C48.5 12.5526 48.498 12.6031 48.4951 12.6536H8.36206C6.93059 12.6536 5.76931 11.4974 5.76931 10.0719C5.76931 6.97829 7.20959 4.64926 9.38469 2.89748C9.734 2.61567 10.102 2.34953 10.4864 2.09684C17.0771 -0.0397142 24.5 5.19242e-05 24.5 5.19242e-05C24.5 5.19242e-05 48.5 -0.129141 48.5 12.501Z" fill="#FFB655"/>
<path d="M37.4 4.51642C37.8162 4.95497 37.7965 5.6464 37.3561 6.06087C36.9157 6.47524 36.2213 6.45564 35.8051 6.01718C35.389 5.57872 34.6229 4.0593 35.0634 3.64483C35.5038 3.23036 36.9838 4.07778 37.4 4.51642ZM31.5842 9.91558C31.8014 10.4788 31.519 11.1108 30.9533 11.3271C30.3876 11.5434 29.7529 11.2621 29.5357 10.6989C29.3185 10.1356 29.1909 8.44031 29.7565 8.22402C30.3222 8.00783 31.367 9.35232 31.5842 9.91558ZM25.5972 5.42227C25.5972 6.02567 25.1059 6.51472 24.5 6.51472C23.894 6.51472 23.4028 6.02558 23.4028 5.42227C23.4028 4.81887 23.8941 3.19078 24.5 3.19078C25.106 3.19069 25.5972 4.81887 25.5972 5.42227ZM19.5644 10.6002C19.4129 11.1844 18.8144 11.5356 18.2277 11.3848C17.6411 11.2339 17.2883 10.638 17.4398 10.0538C17.5913 9.46966 18.4758 8.01558 19.0626 8.16643C19.6493 8.31728 19.7159 10.0161 19.5644 10.6002ZM13.5283 5.8415C13.2642 6.38441 12.608 6.61143 12.0626 6.34838C11.5173 6.08532 11.2893 5.43198 11.5535 4.88888C11.8177 4.34597 12.9726 3.0938 13.518 3.35694C14.0634 3.62009 13.7925 5.29859 13.5283 5.8415Z" fill="#FFF5CC"/>
</svg>
