<svg width="18" height="18" viewBox="0 0 18 18" fill="none" xmlns="http://www.w3.org/2000/svg">
<path fill-rule="evenodd" clip-rule="evenodd" d="M17.3332 9.00008C17.3332 13.6025 13.6022 17.3334 8.99984 17.3334C4.39746 17.3334 0.666504 13.6025 0.666504 9.00008C0.666504 4.39771 4.39746 0.666748 8.99984 0.666748C13.6022 0.666748 17.3332 4.39771 17.3332 9.00008ZM12.3584 6.47481C12.6025 6.71888 12.6025 7.11461 12.3584 7.35869L8.19178 11.5254C7.9477 11.7694 7.55197 11.7694 7.3079 11.5254L5.64123 9.85869C5.39715 9.61461 5.39715 9.21888 5.64123 8.97481C5.88531 8.73073 6.28103 8.73073 6.52511 8.97481L7.74984 10.1995L9.6122 8.33717L11.4746 6.47481C11.7186 6.23073 12.1144 6.23073 12.3584 6.47481Z" fill="#13C296"/>
</svg>
