<svg width="80" height="80" viewBox="0 0 80 80" fill="none" xmlns="http://www.w3.org/2000/svg">
<g clip-path="url(#clip0_172_14598)">
<path fill-rule="evenodd" clip-rule="evenodd" d="M79.2186 79.1624H53.0732C52.6404 79.1624 52.292 78.8124 52.292 78.3812V1.61865C52.292 1.1874 52.6404 0.837402 53.0732 0.837402H79.2186C79.6498 0.837402 79.9998 1.1874 79.9998 1.61865V78.3812C79.9998 78.8124 79.6498 79.1624 79.2186 79.1624Z" fill="#FAA940"/>
<path fill-rule="evenodd" clip-rule="evenodd" d="M79.2186 79.1623H53.0732C52.6404 79.1623 52.292 78.8123 52.292 78.3811V71.417H79.9998V78.3811C79.9998 78.8123 79.6498 79.1623 79.2186 79.1623Z" fill="#E49B3D"/>
<path fill-rule="evenodd" clip-rule="evenodd" d="M26.9266 79.1624H0.78125C0.35 79.1624 0 78.8124 0 78.3812V1.61865C0 1.1874 0.35 0.837402 0.78125 0.837402H26.9266C27.3594 0.837402 27.7078 1.1874 27.7078 1.61865V78.3812C27.7078 78.8124 27.3578 79.1624 26.9266 79.1624Z" fill="#FAA940"/>
<path fill-rule="evenodd" clip-rule="evenodd" d="M26.9266 79.1623H0.78125C0.35 79.1623 0 78.8123 0 78.3811V71.417H27.7078V78.3811C27.7078 78.8123 27.3578 79.1623 26.9266 79.1623Z" fill="#E49B3D"/>
<path fill-rule="evenodd" clip-rule="evenodd" d="M12.5264 49.6418H7.27799C6.84674 49.6418 6.49674 49.2918 6.49674 48.8605V42.6637C5.50299 41.7277 4.94049 40.4324 4.94049 39.0543C4.94049 36.3184 7.16549 34.0918 9.90299 34.0918C12.6389 34.0918 14.8655 36.3184 14.8655 39.0543C14.8655 40.4324 14.303 41.7277 13.3077 42.6637V48.8605C13.3077 49.2918 12.9577 49.6418 12.5264 49.6418Z" fill="#E49B3D"/>
<path fill-rule="evenodd" clip-rule="evenodd" d="M18.628 9.75586H9.08112C8.64987 9.75586 8.29987 9.40586 8.29987 8.97461C8.29987 8.54336 8.64987 8.19336 9.08112 8.19336H18.628C19.0592 8.19336 19.4092 8.54336 19.4092 8.97461C19.4092 9.40586 19.0592 9.75586 18.628 9.75586Z" fill="#E49B3D"/>
<path fill-rule="evenodd" clip-rule="evenodd" d="M18.628 15.4031H9.08112C8.64987 15.4031 8.29987 15.0531 8.29987 14.6218C8.29987 14.1906 8.64987 13.8406 9.08112 13.8406H18.628C19.0592 13.8406 19.4092 14.1906 19.4092 14.6218C19.4092 15.0531 19.0592 15.4031 18.628 15.4031Z" fill="#E49B3D"/>
<path fill-rule="evenodd" clip-rule="evenodd" d="M18.628 21.0496H9.08112C8.64987 21.0496 8.29987 20.6996 8.29987 20.2683C8.29987 19.8355 8.64987 19.4871 9.08112 19.4871H18.628C19.0592 19.4871 19.4092 19.8355 19.4092 20.2683C19.4092 20.6996 19.0592 21.0496 18.628 21.0496Z" fill="#E49B3D"/>
<path fill-rule="evenodd" clip-rule="evenodd" d="M18.628 26.6951H9.08112C8.64987 26.6951 8.29987 26.3466 8.29987 25.9138C8.29987 25.4826 8.64987 25.1326 9.08112 25.1326H18.628C19.0592 25.1326 19.4092 25.4826 19.4092 25.9138C19.4092 26.3466 19.0592 26.6951 18.628 26.6951Z" fill="#E49B3D"/>
<path fill-rule="evenodd" clip-rule="evenodd" d="M19.1745 67.2667H8.53235C8.1011 67.2667 7.7511 66.9167 7.7511 66.4854V60.3808C7.7511 59.9495 8.1011 59.6011 8.53235 59.6011H19.1745C19.6058 59.6011 19.9558 59.9495 19.9558 60.3808V66.4854C19.9558 66.9167 19.6058 67.2667 19.1745 67.2667Z" fill="#E49B3D"/>
<path fill-rule="evenodd" clip-rule="evenodd" d="M53.0736 79.1624H26.9268C26.4955 79.1624 26.1455 78.8124 26.1455 78.3812V1.61865C26.1455 1.1874 26.4955 0.837402 26.9268 0.837402H53.0736C53.5049 0.837402 53.8549 1.1874 53.8549 1.61865V78.3812C53.8549 78.8124 53.5049 79.1624 53.0736 79.1624Z" fill="#EC3352"/>
<path fill-rule="evenodd" clip-rule="evenodd" d="M53.0736 79.1623H26.9268C26.4955 79.1623 26.1455 78.8123 26.1455 78.3811V71.417H53.8549V78.3811C53.8549 78.8123 53.5049 79.1623 53.0736 79.1623Z" fill="#D8314D"/>
<path fill-rule="evenodd" clip-rule="evenodd" d="M38.6734 49.6418H33.4234C32.9922 49.6418 32.6422 49.2918 32.6422 48.8605V42.6637C31.6484 41.7277 31.0859 40.4324 31.0859 39.0543C31.0859 36.3184 33.3125 34.0918 36.0484 34.0918C38.7844 34.0918 41.0109 36.3184 41.0109 39.0543C41.0109 40.4324 40.4484 41.7277 39.4547 42.6637V48.8605C39.4547 49.2918 39.1047 49.6418 38.6734 49.6418Z" fill="#D8314D"/>
<path fill-rule="evenodd" clip-rule="evenodd" d="M44.7734 9.75586H35.2266C34.7953 9.75586 34.4453 9.40586 34.4453 8.97461C34.4453 8.54336 34.7953 8.19336 35.2266 8.19336H44.7734C45.2047 8.19336 45.5547 8.54336 45.5547 8.97461C45.5547 9.40586 45.2047 9.75586 44.7734 9.75586Z" fill="#D8314D"/>
<path fill-rule="evenodd" clip-rule="evenodd" d="M44.7734 15.4033H35.2266C34.7953 15.4033 34.4453 15.0533 34.4453 14.6221C34.4453 14.1908 34.7953 13.8408 35.2266 13.8408H44.7734C45.2047 13.8408 45.5547 14.1908 45.5547 14.6221C45.5547 15.0533 45.2047 15.4033 44.7734 15.4033Z" fill="#D8314D"/>
<path fill-rule="evenodd" clip-rule="evenodd" d="M44.7734 21.0498H35.2266C34.7953 21.0498 34.4453 20.6998 34.4453 20.2686C34.4453 19.8357 34.7953 19.4873 35.2266 19.4873H44.7734C45.2047 19.4873 45.5547 19.8357 45.5547 20.2686C45.5547 20.6998 45.2047 21.0498 44.7734 21.0498Z" fill="#D8314D"/>
<path fill-rule="evenodd" clip-rule="evenodd" d="M44.7734 26.6953H35.2266C34.7953 26.6953 34.4453 26.3469 34.4453 25.9141C34.4453 25.4828 34.7953 25.1328 35.2266 25.1328H44.7734C45.2047 25.1328 45.5547 25.4828 45.5547 25.9141C45.5547 26.3469 45.2047 26.6953 44.7734 26.6953Z" fill="#D8314D"/>
<path fill-rule="evenodd" clip-rule="evenodd" d="M45.3203 67.2672H34.6797C34.2484 67.2672 33.8984 66.9172 33.8984 66.4859V60.3812C33.8984 59.95 34.2484 59.6016 34.6797 59.6016H45.3203C45.7531 59.6016 46.1016 59.95 46.1016 60.3812V66.4859C46.1016 66.9172 45.7531 67.2672 45.3203 67.2672Z" fill="#D8314D"/>
<path fill-rule="evenodd" clip-rule="evenodd" d="M64.8187 49.6418H59.5703C59.139 49.6418 58.789 49.2918 58.789 48.8605V42.6637C57.7953 41.7277 57.2312 40.4324 57.2312 39.0543C57.2312 36.3184 59.4578 34.0918 62.1953 34.0918C64.9312 34.0918 67.1578 36.3184 67.1578 39.0543C67.1578 40.4324 66.5937 41.7277 65.6 42.6637V48.8605C65.6 49.2918 65.25 49.6418 64.8187 49.6418Z" fill="#E49B3D"/>
<path fill-rule="evenodd" clip-rule="evenodd" d="M70.9193 9.75586H61.374C60.9412 9.75586 60.5928 9.40586 60.5928 8.97461C60.5928 8.54336 60.9412 8.19336 61.374 8.19336H70.9193C71.3521 8.19336 71.7006 8.54336 71.7006 8.97461C71.7006 9.40586 71.3521 9.75586 70.9193 9.75586Z" fill="#E49B3D"/>
<path fill-rule="evenodd" clip-rule="evenodd" d="M70.9193 15.4033H61.374C60.9412 15.4033 60.5928 15.0533 60.5928 14.6221C60.5928 14.1908 60.9412 13.8408 61.374 13.8408H70.9193C71.3521 13.8408 71.7006 14.1908 71.7006 14.6221C71.7006 15.0533 71.3521 15.4033 70.9193 15.4033Z" fill="#E49B3D"/>
<path fill-rule="evenodd" clip-rule="evenodd" d="M70.9193 21.0498H61.374C60.9412 21.0498 60.5928 20.6998 60.5928 20.2686C60.5928 19.8357 60.9412 19.4873 61.374 19.4873H70.9193C71.3521 19.4873 71.7006 19.8357 71.7006 20.2686C71.7006 20.6998 71.3521 21.0498 70.9193 21.0498Z" fill="#E49B3D"/>
<path fill-rule="evenodd" clip-rule="evenodd" d="M70.9193 26.6953H61.374C60.9412 26.6953 60.5928 26.3469 60.5928 25.9141C60.5928 25.4828 60.9412 25.1328 61.374 25.1328H70.9193C71.3521 25.1328 71.7006 25.4828 71.7006 25.9141C71.7006 26.3469 71.3521 26.6953 70.9193 26.6953Z" fill="#E49B3D"/>
<path fill-rule="evenodd" clip-rule="evenodd" d="M71.4671 67.2672H60.825C60.3937 67.2672 60.0437 66.9172 60.0437 66.4859V60.3812C60.0437 59.95 60.3937 59.6016 60.825 59.6016H71.4671C71.8984 59.6016 72.2484 59.95 72.2484 60.3812V66.4859C72.2484 66.9172 71.8984 67.2672 71.4671 67.2672Z" fill="#E49B3D"/>
</g>
<defs>
<clipPath id="clip0_172_14598">
<rect width="80" height="80" fill="white"/>
</clipPath>
</defs>
</svg>
