<svg width="23" height="15" viewBox="0 0 23 15" fill="none" xmlns="http://www.w3.org/2000/svg">
<path d="M0.969866 5.97016L2.67843 5.21664C2.74568 5.18597 2.81873 5.1701 2.89265 5.1701C2.96656 5.1701 3.03961 5.18597 3.10686 5.21664L7.49958 7.32753L12.2485 5.23729L6.00781 2.03225C5.92111 1.98858 5.84847 1.92135 5.79826 1.83827C5.74804 1.7552 5.72227 1.65965 5.72391 1.56259C5.72653 1.46451 5.75705 1.36921 5.81191 1.28785C5.86676 1.2065 5.94367 1.14246 6.03362 1.10325L8.06222 0.210385C8.18181 0.164247 8.31429 0.164247 8.43387 0.210385L17.1161 3.10576L19.8157 1.91871C21.8804 0.938099 23.429 4.1741 21.3075 5.1031L7.43764 11.1932C7.3547 11.2309 7.26325 11.246 7.17259 11.2369C7.08193 11.2279 6.99528 11.195 6.92146 11.1416L0.876953 6.85271C0.805202 6.79919 0.748604 6.72793 0.712717 6.64594C0.676831 6.56394 0.662888 6.47402 0.672259 6.385C0.68163 6.29599 0.713993 6.21094 0.766169 6.13821C0.818345 6.06549 0.888542 6.00757 0.969866 5.97016ZM21.8237 14.873H1.17634C1.03944 14.873 0.908146 14.8187 0.811343 14.7219C0.71454 14.6251 0.660156 14.4938 0.660156 14.3569C0.660156 14.2201 0.71454 14.0888 0.811343 13.992C0.908146 13.8952 1.03944 13.8408 1.17634 13.8408H21.8237C21.9606 13.8408 22.0919 13.8952 22.1887 13.992C22.2855 14.0888 22.3398 14.2201 22.3398 14.3569C22.3398 14.4938 22.2855 14.6251 22.1887 14.7219C22.0919 14.8187 21.9606 14.873 21.8237 14.873Z" fill="#24BBC4"/>
</svg>
