<svg width="13" height="14" viewBox="0 0 13 14" fill="none" xmlns="http://www.w3.org/2000/svg">
<path d="M5.34988 11.6912C5.55506 11.5312 5.74117 11.3451 6.11333 10.9729L10.8825 6.20375C10.2334 5.9336 9.46462 5.48984 8.73755 4.76277C8.01036 4.03558 7.56658 3.26667 7.29643 2.61752L2.52719 7.38677L2.52717 7.38679C2.15501 7.75894 1.96892 7.94504 1.80888 8.15022C1.6201 8.39226 1.45824 8.65414 1.32618 8.93124C1.21423 9.16614 1.13101 9.41581 0.96457 9.91514L0.0868684 12.5482C0.00496029 12.794 0.0689136 13.0649 0.252066 13.248C0.435218 13.4312 0.706129 13.4951 0.951854 13.4132L3.58496 12.5355C4.08428 12.3691 4.33395 12.2859 4.56886 12.1739C4.84595 12.0419 5.10784 11.88 5.34988 11.6912Z" fill="white"/>
<path d="M12.2059 4.88037C13.1962 3.89008 13.1962 2.28451 12.2059 1.29423C11.2156 0.303942 9.61001 0.303942 8.61973 1.29423L8.04773 1.86623C8.05556 1.88988 8.06368 1.91386 8.07211 1.93815C8.28177 2.54246 8.67735 3.33465 9.4215 4.07881C10.1657 4.82296 10.9579 5.21854 11.5622 5.4282C11.5863 5.43659 11.6102 5.44468 11.6338 5.45248L12.2059 4.88037Z" fill="white"/>
</svg>
