<svg width="183" height="160" viewBox="0 0 183 160" fill="none" xmlns="http://www.w3.org/2000/svg">
<path fill-rule="evenodd" clip-rule="evenodd" d="M97 160C141.183 160 177 124.183 177 80C177 35.8172 141.183 0 97 0C52.8172 0 17 35.8172 17 80C17 124.183 52.8172 160 97 160Z" fill="#24BBC4" fill-opacity="0.1"/>
<path d="M76.4631 68.9814V76.8886H61.825C60.7869 76.8886 59.7589 76.684 58.7999 76.2865C57.8409 75.8891 56.9697 75.3066 56.2359 74.5723C55.5021 73.8379 54.9203 72.9662 54.5235 72.0069C54.1268 71.0476 53.923 70.0195 53.9238 68.9814H76.4631Z" fill="#24BBC4"/>
<path d="M98.0605 70.2912C97.2945 70.2907 96.5505 70.0354 95.9457 69.5654C95.3409 69.0954 94.9096 68.4376 94.7199 67.6955L89.768 48.3111C88.9522 45.1256 89.3672 41.7497 90.9302 38.8567C92.4932 35.9637 95.0894 33.7662 98.2009 32.7026C101.312 31.6389 104.71 31.7874 107.717 33.1182C110.724 34.4491 113.119 36.8645 114.424 39.8828L127.343 69.7282C128.1 71.4753 125.294 68.4323 123.549 69.189C121.804 69.9458 121.472 73.524 120.716 71.7848L108.096 42.6323C107.481 41.2064 106.351 40.0649 104.931 39.4359C103.511 38.8068 101.906 38.7365 100.437 39.239C98.9674 39.7415 97.7416 40.7798 97.0042 42.1465C96.2669 43.5133 96.0722 45.1078 96.4591 46.6118L101.405 65.9863C101.63 66.8722 101.495 67.8113 101.029 68.5975C100.562 69.3837 99.8027 69.9526 98.9171 70.1794C98.6374 70.2528 98.3496 70.2904 98.0605 70.2912Z" fill="#2C599D"/>
<path d="M153.512 85.2133L132.616 51.9155H83.4046L70.6953 51.9295C73.4749 53.781 75.7762 56.2649 77.4102 59.1776C79.0443 62.0904 79.9647 65.349 80.096 68.6862C80.096 68.6862 80.1339 69.2233 80.1339 69.4849V86.1917C80.1339 88.2456 80.9489 90.2156 82.3999 91.6692C83.8509 93.1228 85.8194 93.9413 87.8733 93.945H148.684C153.169 93.951 155.9 89.0071 153.512 85.2133ZM143.844 86.0439H90.0717C89.8053 86.0439 89.5414 85.9914 89.2952 85.8893C89.0491 85.7872 88.8255 85.6375 88.6372 85.4489C88.449 85.2603 88.2998 85.0364 88.1982 84.79C88.0966 84.5437 88.0445 84.2797 88.045 84.0132V59.8226H128.24L144.253 85.3031C144.3 85.3763 144.325 85.4604 144.328 85.5468C144.33 85.6332 144.309 85.7187 144.268 85.7944C144.226 85.8701 144.164 85.9331 144.09 85.977C144.015 86.0209 143.931 86.044 143.844 86.0439Z" fill="#2C599D"/>
<path d="M98.9172 76.0503C102.157 76.0503 104.784 73.4238 104.784 70.1838C104.784 66.9439 102.157 64.3174 98.9172 64.3174C95.6773 64.3174 93.0508 66.9439 93.0508 70.1838C93.0508 73.4238 95.6773 76.0503 98.9172 76.0503Z" fill="#2C599D"/>
<path d="M123.824 76.0503C127.064 76.0503 129.691 73.4238 129.691 70.1838C129.691 66.9439 127.064 64.3174 123.824 64.3174C120.585 64.3174 117.958 66.9439 117.958 70.1838C117.958 73.4238 120.585 76.0503 123.824 76.0503Z" fill="#2C599D"/>
<path d="M79.5922 93.9409C77.7297 91.9918 76.6207 89.444 76.4633 86.7526V69.4928C76.4633 64.8325 74.6121 60.3632 71.3168 57.0679C68.0215 53.7726 63.5522 51.9214 58.892 51.9214H38C37.9987 52.9593 38.2022 53.9872 38.5988 54.9463C38.9954 55.9054 39.5774 56.7768 40.3114 57.5106C41.0454 58.2443 41.9169 58.8261 42.8761 59.2225C43.8353 59.6189 44.8633 59.8221 45.9011 59.8205H58.8141C60.0957 59.8205 61.3648 60.073 62.5488 60.5635C63.7329 61.054 64.8087 61.773 65.7148 62.6793C66.621 63.5856 67.3397 64.6616 67.83 65.8457C68.3202 67.0299 68.5725 68.299 68.5722 69.5806V86.0478C68.5743 88.1402 69.4063 90.1463 70.8857 91.626C72.365 93.1058 74.3709 93.9383 76.4633 93.9409H79.5842H79.5922Z" fill="#24BBC4"/>
<path d="M10 106.874H24.3886V110.488H13.8857V114.859H22.6294V118.379H13.8857V126.728H10V106.874Z" fill="#2C599D"/>
<path d="M31.6719 115.106C31.6719 109.795 34.7089 106.486 40.3238 106.486C45.9386 106.486 49.0356 109.795 49.0356 115.106V126.727H45.1499V120.777H35.4677V126.727H31.6739L31.6719 115.106ZM45.1499 117.263V115.106C45.1499 111.911 43.5725 110.098 40.2938 110.098C37.0152 110.098 35.4677 111.911 35.4677 115.106V117.263H45.1499Z" fill="#2C599D"/>
<path d="M57.5342 106.874H61.4198V126.728H57.5342V106.874Z" fill="#2C599D"/>
<path d="M70.376 106.874H78.6924C83.7322 106.874 85.9486 109.638 85.9486 113.431C85.9486 116.558 84.461 118.713 81.7894 119.593L86.6754 126.728H82.0629L77.8418 120.019H74.2616V126.728H70.376V106.874ZM78.7623 116.406C81.2203 116.406 82.039 115.133 82.039 113.431C82.039 111.73 81.2203 110.488 78.7623 110.488H74.2696V116.406H78.7623Z" fill="#2C599D"/>
<path d="M106.709 119.655V106.876H110.595V119.655C110.595 122.387 112.052 123.509 113.963 123.509C115.874 123.509 117.334 122.357 117.334 119.655V106.876H121.219V119.655C121.219 122.357 122.677 123.509 124.588 123.509C126.499 123.509 127.958 122.387 127.958 119.655V106.876H131.838V119.655C131.838 124.755 128.843 127.121 124.917 127.121C122.397 127.121 120.425 126.059 119.271 124.086C118.116 126.059 116.144 127.121 113.624 127.121C109.714 127.121 106.709 124.755 106.709 119.655Z" fill="#2C599D"/>
<path d="M139.825 115.106C139.825 109.795 142.862 106.486 148.477 106.486C154.092 106.486 157.197 109.789 157.197 115.106V126.727H153.303V120.777H143.619V126.727H139.825V115.106ZM153.303 117.263V115.106C153.303 111.911 151.726 110.098 148.447 110.098C145.198 110.092 143.619 111.911 143.619 115.106V117.263H153.303Z" fill="#2C599D"/>
<path d="M171.607 118.349L164.02 106.874H168.612L173.528 114.889L178.508 106.874H183.001L175.503 118.255V126.728H171.607V118.349Z" fill="#2C599D"/>
</svg>
