<svg width="25" height="25" viewBox="0 0 25 25" fill="none" xmlns="http://www.w3.org/2000/svg">
<rect width="25" height="25" rx="5" fill="#E7343F"/>
<g clip-path="url(#clip0_31_14231)">
<path d="M18.6849 15.0518L19.6615 19.391L18.737 20.3122L14.5605 13.0401C12.9329 14.557 11.11 16.1878 9.50846 17.4671L9.89583 19.6612L8.97461 20.3122L7.77344 18.7627C6.57552 19.5798 5.42318 20.2308 5.0944 19.9053C4.76563 19.5798 5.41992 18.4242 6.23698 17.2263L4.6875 16.0251L5.33854 15.1039L7.53255 15.4912C8.81185 13.8897 10.4427 12.0667 11.9596 10.4391L4.6875 6.26271L5.60872 5.33823L9.95117 6.3148L10.6608 5.6019C10.7218 5.54128 10.8043 5.50725 10.8903 5.50725C10.9763 5.50725 11.0588 5.54128 11.1198 5.6019L11.5755 6.05763C11.606 6.0879 11.6302 6.1239 11.6468 6.16357C11.6633 6.20323 11.6718 6.24578 11.6718 6.28875C11.6718 6.33173 11.6633 6.37427 11.6468 6.41394C11.6302 6.45361 11.606 6.48961 11.5755 6.51987L11.4486 6.64032L12.2135 6.80959L12.9655 6.06089C13.0265 6.00026 13.109 5.96623 13.195 5.96623C13.281 5.96623 13.3635 6.00026 13.4245 6.06089L13.8802 6.51336C13.9107 6.54362 13.9349 6.57963 13.9515 6.6193C13.968 6.65896 13.9765 6.70151 13.9765 6.74448C13.9765 6.78746 13.968 6.83 13.9515 6.86967C13.9349 6.90934 13.9107 6.94534 13.8802 6.9756L13.7109 7.14487L14.8503 7.39878C15.3809 6.85516 16.2109 6.02834 16.3249 5.9144C17.0866 5.14943 19.2546 4.20542 20.0293 4.96714C20.804 5.72886 19.8503 7.9131 19.0885 8.67482C18.9714 8.78875 18.1445 9.61883 17.6009 10.1494L17.8548 11.2888L18.0241 11.1195C18.0544 11.089 18.0904 11.0648 18.13 11.0482C18.1697 11.0317 18.2122 11.0232 18.2552 11.0232C18.2982 11.0232 18.3407 11.0317 18.3804 11.0482C18.4201 11.0648 18.4561 11.089 18.4863 11.1195L18.9421 11.5752C19.0027 11.6362 19.0367 11.7187 19.0367 11.8047C19.0367 11.8907 19.0027 11.9732 18.9421 12.0342L18.1901 12.7861L18.3594 13.5511L18.4896 13.4242C18.5506 13.3635 18.6331 13.3295 18.7191 13.3295C18.8051 13.3295 18.8876 13.3635 18.9486 13.4242L19.4043 13.8799C19.4649 13.9409 19.499 14.0234 19.499 14.1094C19.499 14.1954 19.4649 14.2779 19.4043 14.3389L18.6849 15.0518Z" fill="white"/>
</g>
<defs>
<clipPath id="clip0_31_14231">
<rect width="15.625" height="15.625" fill="white" transform="translate(4.6875 4.6875)"/>
</clipPath>
</defs>
</svg>
