<svg width="18" height="18" viewBox="0 0 18 18" fill="none" xmlns="http://www.w3.org/2000/svg">
<path fill-rule="evenodd" clip-rule="evenodd" d="M9 2.0625C5.16852 2.0625 2.0625 5.16852 2.0625 9C2.0625 12.8315 5.16852 15.9375 9 15.9375C12.8315 15.9375 15.9375 12.8315 15.9375 9C15.9375 5.16852 12.8315 2.0625 9 2.0625ZM0.9375 9C0.9375 4.5472 4.5472 0.9375 9 0.9375C13.4528 0.9375 17.0625 4.5472 17.0625 9C17.0625 13.4528 13.4528 17.0625 9 17.0625C4.5472 17.0625 0.9375 13.4528 0.9375 9ZM9 5.8125C8.53401 5.8125 8.15625 6.19026 8.15625 6.65625C8.15625 6.96691 7.90441 7.21875 7.59375 7.21875C7.28309 7.21875 7.03125 6.96691 7.03125 6.65625C7.03125 5.56894 7.91269 4.6875 9 4.6875C10.0873 4.6875 10.9688 5.56894 10.9688 6.65625C10.9688 7.37875 10.5792 8.00968 10.0014 8.35152C9.85388 8.43883 9.73207 8.53415 9.65271 8.62768C9.57566 8.71847 9.5625 8.7777 9.5625 8.8125V9.75C9.5625 10.0607 9.31066 10.3125 9 10.3125C8.68934 10.3125 8.4375 10.0607 8.4375 9.75V8.8125C8.4375 8.43308 8.60361 8.12523 8.79494 7.89976C8.98397 7.67702 9.21967 7.5069 9.4286 7.38329C9.67833 7.23554 9.84375 6.96491 9.84375 6.65625C9.84375 6.19026 9.46599 5.8125 9 5.8125ZM9 12.75C9.41421 12.75 9.75 12.4142 9.75 12C9.75 11.5858 9.41421 11.25 9 11.25C8.58579 11.25 8.25 11.5858 8.25 12C8.25 12.4142 8.58579 12.75 9 12.75Z" fill="white"/>
<path d="M10.0014 8.35152L9.87415 8.13636H9.87415L10.0014 8.35152ZM9.65271 8.62768L9.84332 8.78944L9.84332 8.78943L9.65271 8.62768ZM8.79494 7.89976L8.60433 7.738V7.738L8.79494 7.89976ZM9.4286 7.38329L9.3013 7.16813L9.4286 7.38329ZM2.3125 9C2.3125 5.3066 5.3066 2.3125 9 2.3125V1.8125C5.03045 1.8125 1.8125 5.03045 1.8125 9H2.3125ZM9 15.6875C5.3066 15.6875 2.3125 12.6934 2.3125 9H1.8125C1.8125 12.9695 5.03045 16.1875 9 16.1875V15.6875ZM15.6875 9C15.6875 12.6934 12.6934 15.6875 9 15.6875V16.1875C12.9695 16.1875 16.1875 12.9695 16.1875 9H15.6875ZM9 2.3125C12.6934 2.3125 15.6875 5.3066 15.6875 9H16.1875C16.1875 5.03045 12.9695 1.8125 9 1.8125V2.3125ZM9 0.6875C4.40913 0.6875 0.6875 4.40913 0.6875 9H1.1875C1.1875 4.68528 4.68528 1.1875 9 1.1875V0.6875ZM17.3125 9C17.3125 4.40913 13.5909 0.6875 9 0.6875V1.1875C13.3147 1.1875 16.8125 4.68528 16.8125 9H17.3125ZM9 17.3125C13.5909 17.3125 17.3125 13.5909 17.3125 9H16.8125C16.8125 13.3147 13.3147 16.8125 9 16.8125V17.3125ZM0.6875 9C0.6875 13.5909 4.40913 17.3125 9 17.3125V16.8125C4.68528 16.8125 1.1875 13.3147 1.1875 9H0.6875ZM8.40625 6.65625C8.40625 6.32833 8.67208 6.0625 9 6.0625V5.5625C8.39594 5.5625 7.90625 6.05219 7.90625 6.65625H8.40625ZM7.59375 7.46875C8.04248 7.46875 8.40625 7.10498 8.40625 6.65625H7.90625C7.90625 6.82884 7.76634 6.96875 7.59375 6.96875V7.46875ZM6.78125 6.65625C6.78125 7.10498 7.14502 7.46875 7.59375 7.46875V6.96875C7.42116 6.96875 7.28125 6.82884 7.28125 6.65625H6.78125ZM9 4.4375C7.77462 4.4375 6.78125 5.43087 6.78125 6.65625H7.28125C7.28125 5.70701 8.05076 4.9375 9 4.9375V4.4375ZM11.2188 6.65625C11.2188 5.43087 10.2254 4.4375 9 4.4375V4.9375C9.94924 4.9375 10.7188 5.70701 10.7188 6.65625H11.2188ZM10.1287 8.56669C10.7793 8.18177 11.2188 7.47083 11.2188 6.65625H10.7188C10.7188 7.28667 10.3791 7.83759 9.87415 8.13636L10.1287 8.56669ZM9.84332 8.78943C9.8983 8.72465 9.99478 8.64595 10.1287 8.56669L9.87415 8.13636C9.71299 8.23171 9.56585 8.34365 9.4621 8.46592L9.84332 8.78943ZM9.8125 8.8125C9.8125 8.81999 9.81175 8.82664 9.81065 8.83202C9.80958 8.83722 9.80853 8.8395 9.80891 8.83859C9.80986 8.83636 9.81726 8.82015 9.84332 8.78944L9.4621 8.46591C9.35865 8.58781 9.3125 8.70228 9.3125 8.8125H9.8125ZM9.8125 9.75V8.8125H9.3125V9.75H9.8125ZM9 10.5625C9.44873 10.5625 9.8125 10.1987 9.8125 9.75H9.3125C9.3125 9.92259 9.17259 10.0625 9 10.0625V10.5625ZM8.1875 9.75C8.1875 10.1987 8.55127 10.5625 9 10.5625V10.0625C8.82741 10.0625 8.6875 9.92259 8.6875 9.75H8.1875ZM8.1875 8.8125V9.75H8.6875V8.8125H8.1875ZM8.60433 7.738C8.38779 7.99316 8.1875 8.35627 8.1875 8.8125H8.6875C8.6875 8.5099 8.81942 8.25729 8.98556 8.06152L8.60433 7.738ZM9.3013 7.16813C9.07871 7.29982 8.81771 7.48655 8.60433 7.738L8.98556 8.06152C9.15023 7.86748 9.36063 7.71398 9.5559 7.59845L9.3013 7.16813ZM9.59375 6.65625C9.59375 6.87322 9.47789 7.06365 9.3013 7.16813L9.5559 7.59845C9.87877 7.40743 10.0938 7.05661 10.0938 6.65625H9.59375ZM9 6.0625C9.32792 6.0625 9.59375 6.32833 9.59375 6.65625H10.0938C10.0938 6.05219 9.60406 5.5625 9 5.5625V6.0625ZM9.5 12C9.5 12.2761 9.27614 12.5 9 12.5V13C9.55228 13 10 12.5523 10 12H9.5ZM9 11.5C9.27614 11.5 9.5 11.7239 9.5 12H10C10 11.4477 9.55228 11 9 11V11.5ZM8.5 12C8.5 11.7239 8.72386 11.5 9 11.5V11C8.44772 11 8 11.4477 8 12H8.5ZM9 12.5C8.72386 12.5 8.5 12.2761 8.5 12H8C8 12.5523 8.44772 13 9 13V12.5Z" fill="white"/>
</svg>
