<svg width="12" height="16" viewBox="0 0 12 16" fill="none" xmlns="http://www.w3.org/2000/svg">
<path fill-rule="evenodd" clip-rule="evenodd" d="M6 6.75C6.34519 6.75 6.625 6.47019 6.625 6.125C6.625 5.77981 6.34519 5.5 6 5.5C5.65481 5.5 5.375 5.77981 5.375 6.125C5.375 6.47019 5.65481 6.75 6 6.75ZM6 8C7.03556 8 7.875 7.16056 7.875 6.125C7.875 5.08944 7.03556 4.25 6 4.25C4.96444 4.25 4.125 5.08944 4.125 6.125C4.125 7.16056 4.96444 8 6 8Z" fill="#60635E"/>
<path fill-rule="evenodd" clip-rule="evenodd" d="M6 1.75C3.58375 1.75 1.625 3.70876 1.625 6.125C1.625 7.87119 2.29144 9.47812 3.15125 10.8212C4.01006 12.1628 5.039 13.2051 5.70563 13.8091C5.87919 13.9663 6.12081 13.9663 6.29438 13.8091C6.961 13.2051 7.98994 12.1628 8.84875 10.8212C9.70856 9.47812 10.375 7.87119 10.375 6.125C10.375 3.70876 8.41625 1.75 6 1.75ZM0.375 6.125C0.375 3.0184 2.89337 0.5 6 0.5C9.10662 0.5 11.625 3.0184 11.625 6.125C11.625 8.18962 10.8392 10.0304 9.9015 11.4952C8.96269 12.9617 7.84863 14.0876 7.13363 14.7354C6.48381 15.3242 5.51619 15.3242 4.86637 14.7354C4.15138 14.0876 3.03731 12.9617 2.09852 11.4952C1.16078 10.0304 0.375 8.18962 0.375 6.125Z" fill="#60635E"/>
</svg>
