<svg width="235" height="234" viewBox="0 0 235 234" fill="none" xmlns="http://www.w3.org/2000/svg">
<path d="M0.507324 0H234.492V233.985H0.507324V0Z" fill="#FEFEFE"/>
<path d="M17.073 177.88C16.1642 177.9 15.222 177.966 14.3161 177.897C13.932 177.867 13.547 177.813 13.299 177.491C13.273 177.457 13.2473 177.423 13.2254 177.387C13.0137 177.034 12.9439 176.535 12.9167 176.132C12.7683 173.939 12.9469 171.62 12.9551 169.414L12.9488 156.169L12.8893 80.9598L12.8708 60.1835L12.8545 53.8991C12.8509 52.3821 12.7871 50.8333 12.9698 49.3254C13.1466 49.128 13.3076 49.0279 13.559 48.9532C14.6895 48.6168 27.0358 48.8346 29.1417 48.833L44.6032 48.817C47.2943 48.8124 50.0383 48.699 52.7241 48.8255C53.1638 48.8463 53.47 48.9171 53.8619 49.115C54.267 49.2133 54.8536 49.4102 55.2664 49.2937C55.442 50.8121 55.3325 52.4319 55.3272 53.9633L55.3131 62.2403L55.3363 92.9548L55.3496 148.675L55.3652 166.826C55.3699 170.01 55.4428 173.211 55.3702 176.394L55.2164 176.419C55.2632 176.632 55.338 176.891 55.3284 177.109C55.3121 177.468 54.9461 177.788 54.7166 178.041C54.6984 179.708 55.1161 183.575 54.3316 184.899C54.0568 185.131 53.7101 185.146 53.3637 185.165C51.1079 185.286 48.7853 185.159 46.5231 185.161L32.2301 185.176L22.8972 185.178C21.2452 185.177 19.2234 185.389 17.6174 185.014C17.5043 184.987 17.5048 184.999 17.4185 184.899C16.7434 184.116 17.0627 179.114 17.073 177.88Z" fill="#162E56"/>
<path d="M44.1217 177.978C46.7897 177.959 49.4577 177.964 52.1257 177.992L52.1433 182.713C47.2248 182.704 42.2907 182.778 37.3743 182.685C37.3859 181.129 37.3791 179.573 37.3538 178.017C39.557 178.031 41.9445 178.229 44.1217 177.978Z" fill="#3F6292"/>
<path d="M19.6411 177.937C24.5635 177.843 29.5003 177.948 34.4249 177.931L40.621 177.924C41.777 177.926 42.9716 177.87 44.1221 177.978C41.9449 178.229 39.5573 178.031 37.3541 178.016C37.3794 179.573 37.3863 181.129 37.3747 182.685L19.6423 182.706C19.6095 181.116 19.6092 179.526 19.6411 177.937Z" fill="#415978"/>
<path d="M53.8623 49.115C54.2674 49.2133 54.854 49.4102 55.2668 49.2937C55.4423 50.8121 55.3329 52.4319 55.3276 53.9633L55.3135 62.2403L55.3368 92.9548L55.35 148.675L55.3655 166.826C55.3703 170.01 55.4432 173.211 55.3706 176.394L55.2168 176.419C54.9467 175.814 54.5596 175.614 54.0222 175.281C53.5794 174.311 53.8647 119.673 53.8696 113.665L53.8623 49.115Z" fill="#3C87BD"/>
<path d="M15.3865 51.4422C19.5746 51.3347 23.792 51.4529 27.9832 51.4586L51.3662 51.4844L51.2913 175.386L15.397 175.369L15.3865 51.4422Z" fill="#365A99"/>
<path d="M21.9853 72.4555C22.0493 72.4468 22.1133 72.4376 22.1775 72.4297C23.1437 72.3095 24.2128 72.3878 25.1885 72.3887L31.067 72.3965L38.9301 72.3969C40.4186 72.3938 41.9445 72.3241 43.4291 72.4166C43.7366 72.4358 43.9364 72.4687 44.1799 72.6698C44.426 72.873 44.5796 73.0964 44.5919 73.4278C44.6132 74.0018 44.3438 74.3418 43.9768 74.7494C42.8668 74.8287 41.7135 74.7572 40.5997 74.7494L34.3082 74.7286L26.9829 74.7316C25.6272 74.7343 24.2309 74.801 22.8802 74.7099C22.479 74.6829 22.0544 74.6664 21.7333 74.3916C21.4974 74.1896 21.413 73.9381 21.4028 73.636C21.3862 73.1403 21.657 72.7886 21.9853 72.4555Z" fill="#162E56"/>
<path d="M22.2638 66.1844C27.1276 65.9989 32.05 66.1588 36.9196 66.156C38.5721 66.1551 42.3266 65.9289 43.7759 66.1997C44.1178 66.2637 44.3554 66.4988 44.5195 66.792C44.6895 67.0959 44.6901 67.4981 44.5695 67.8195C44.4244 68.2055 44.1639 68.3837 43.8079 68.5555C39.1303 68.6289 34.4423 68.5621 29.7634 68.5731C27.583 68.5784 24.389 68.7982 22.3244 68.5229C21.9886 68.4781 21.6277 68.3435 21.4452 68.0366C21.285 67.7677 21.3074 67.4256 21.3937 67.1368C21.5474 66.6224 21.8189 66.4357 22.2638 66.1844Z" fill="#162E56"/>
<path d="M22.2289 60.1337C26.6591 59.9578 31.1464 60.1132 35.583 60.1077L40.7539 60.0917C41.6764 60.0891 42.6498 60.0254 43.5649 60.1387C43.9543 60.187 44.3446 60.3604 44.5512 60.7123C44.7104 60.9837 44.7234 61.3135 44.6538 61.6135C44.5448 62.0832 44.2843 62.283 43.8926 62.5133C39.0918 62.6017 34.2794 62.5596 29.4769 62.5784C27.8975 62.5846 23.2764 62.8138 22.15 62.4884C21.8461 62.4006 21.6633 62.2537 21.5263 61.9654C21.3735 61.6434 21.3422 61.2221 21.4602 60.8841C21.5985 60.4879 21.8766 60.3222 22.2289 60.1337Z" fill="#162E56"/>
<path d="M23.0669 162.747L36.0166 162.744C38.2872 162.749 40.639 162.624 42.8959 162.797C43.4694 162.841 44.0048 162.939 44.5333 163.175C44.7278 163.415 44.9067 163.672 44.9307 163.993C44.9623 164.413 44.7488 164.741 44.4598 165.021C44.0377 165.429 43.7092 165.453 43.1512 165.447L29.6052 165.439C27.2585 165.443 24.8277 165.597 22.4935 165.42C22.2386 165.401 21.9515 165.351 21.7352 165.204C21.3976 164.973 21.1815 164.648 21.1423 164.239C21.108 163.881 21.1837 163.495 21.4399 163.229C21.8802 162.771 22.4729 162.76 23.0669 162.747Z" fill="#162E56"/>
<path d="M21.9431 156.999C26.4761 156.838 31.0473 156.951 35.5844 156.942C37.9466 156.937 41.4683 156.727 43.6868 156.989C43.9912 157.026 44.2853 157.153 44.4929 157.387C44.7893 157.72 44.8163 158.139 44.7447 158.555C44.6518 159.094 44.4374 159.337 44.0092 159.658C42.9309 159.772 41.7884 159.71 40.7035 159.709L34.8632 159.702L27.0377 159.689C25.616 159.687 24.1639 159.743 22.7455 159.653C22.2383 159.621 21.6682 159.558 21.3427 159.113C21.1063 158.79 21.0903 158.385 21.1671 158.007C21.2739 157.481 21.5165 157.279 21.9431 156.999Z" fill="#162E56"/>
<path d="M22.1353 150.853C26.5055 150.68 30.9388 150.825 35.3148 150.827C37.7957 150.828 41.2138 150.631 43.593 150.874C44.0356 150.919 44.4517 151.03 44.7092 151.432C44.9318 151.78 44.9286 152.241 44.8262 152.628C44.698 153.112 44.4398 153.318 44.0205 153.557C39.036 153.637 34.0371 153.556 29.0512 153.562C27.4177 153.564 23.3636 153.779 21.9731 153.467C21.6149 153.387 21.3982 153.159 21.2339 152.842C21.0551 152.497 21.0353 151.946 21.2116 151.596C21.4334 151.156 21.703 151.028 22.1353 150.853Z" fill="#162E56"/>
<path d="M20.5256 108.803C22.2403 108.838 24.5541 108.514 26.1636 109.085C26.9613 109.368 27.502 109.905 27.8522 110.669C28.0103 111.014 28.1111 111.355 28.1493 111.733C28.3268 113.498 28.3195 126.164 27.8698 127.317C27.4249 128.458 26.4657 129.136 25.3856 129.601C23.6282 129.86 21.013 129.946 19.4765 128.954C18.53 128.343 18.2061 127.708 17.9627 126.643C17.5682 124.915 17.6406 113.781 17.8778 111.853C17.9572 111.208 18.0768 110.666 18.4409 110.116C18.953 109.343 19.633 108.972 20.5256 108.803Z" fill="#162E56"/>
<path d="M20.4553 111.288C22.0956 111.272 24.0426 111.06 25.6477 111.409C25.8969 111.684 25.8791 112.371 25.891 112.751C25.978 115.552 25.8771 118.371 25.8869 121.174C25.8922 122.625 26.1037 124.797 25.8695 126.165C25.8042 126.547 25.4781 126.832 25.2231 127.105C25.0892 127.18 24.954 127.233 24.8079 127.282C23.8412 127.605 21.7142 127.532 20.8142 127.039C20.4936 126.863 20.2886 126.654 20.2138 126.289C20.0384 125.434 20.0394 112.874 20.1904 111.831C20.2229 111.605 20.3213 111.465 20.4553 111.288Z" fill="#FEFEFE"/>
<path d="M22.7473 113.809C23.46 113.831 24.0461 113.995 24.5472 114.533C25.501 115.556 25.3465 117.218 25.2711 118.505C24.7768 119.336 24.3109 119.689 23.3946 119.989C22.8482 119.998 22.33 119.998 21.8435 119.715C21.2885 119.391 20.915 118.796 20.7561 118.185C20.4923 117.17 20.5374 115.823 21.0818 114.903C21.4778 114.234 22.0154 113.98 22.7473 113.809Z" fill="#162E56"/>
<path d="M22.6307 115.569C22.8269 115.598 23.0648 115.619 23.2408 115.721C23.5175 115.88 23.6757 116.214 23.7438 116.514C23.8786 117.11 23.7143 117.786 23.3894 118.288C23.1319 118.251 22.8225 118.227 22.6194 118.044C22.3979 117.844 22.2763 117.471 22.2495 117.181C22.2008 116.655 22.3078 115.989 22.6307 115.569Z" fill="#BD5C2B"/>
<path d="M55.2671 49.2937C55.5941 48.9185 55.8388 48.8052 56.3358 48.781C58.1919 48.6907 60.1213 48.8052 61.9859 48.8059L74.5055 48.8077L88.0161 48.8097C90.2449 48.8107 92.5123 48.7174 94.7357 48.8186C95.1289 48.8365 95.5841 48.8934 95.8971 49.1523C96.3335 49.2683 96.77 49.4262 97.2212 49.3006C97.5988 48.9099 97.8021 48.7997 98.3649 48.7883C100.186 48.752 102.033 48.8418 103.859 48.8413L119.528 48.8452L131.277 48.8352C133.185 48.8294 135.116 48.747 137.021 48.8057C137.402 48.8176 137.611 48.8075 137.923 49.053C137.991 49.1069 138.038 49.1715 138.092 49.2381C138.534 49.4202 138.858 49.4908 139.336 49.4755C139.545 49.1489 139.687 48.9789 140.075 48.8836C141.072 48.6395 142.342 48.8526 143.37 48.8539L150.626 48.8459L169.647 48.8589C172.613 48.8608 175.592 48.7854 178.557 48.8496C178.97 48.8585 179.619 48.8156 179.962 49.0557C180.113 49.1613 180.241 49.337 180.342 49.4867C180.691 49.6215 180.932 49.7081 181.308 49.6802C181.465 49.3829 181.607 49.076 181.94 48.9428C182.411 48.7553 217.036 48.731 220.629 48.8298C220.933 48.8382 221.292 48.8464 221.563 49.0007C221.841 49.1592 222.09 49.4686 222.14 49.7856C222.433 51.6456 222.186 55.2538 222.18 57.3247L222.173 74.2331L222.264 134.534L222.271 161.973C222.271 166.706 222.475 171.602 222.219 176.32C222.2 176.667 222.202 177.031 221.974 177.31C221.62 177.745 221.015 177.851 220.483 177.881C219.588 177.932 218.687 177.852 217.79 177.883C217.776 179.35 218.12 184.024 217.197 185.068C216.659 185.239 216.126 185.303 215.564 185.32C209.538 185.505 203.452 185.337 197.42 185.326L188.072 185.309C186.231 185.313 184.37 185.386 182.532 185.32C182.092 185.304 181.533 185.259 181.13 185.068C180.775 184.899 180.621 184.579 180.529 184.213C180.113 182.544 180.462 179.256 180.406 177.376C179.49 178.131 178.713 178.014 177.589 177.977C177.598 179.433 177.954 183.967 177.097 184.97C176.98 185.107 176.863 185.13 176.691 185.159C175.283 185.404 173.689 185.268 172.26 185.265L164.652 185.248L148.252 185.238C145.815 185.244 143.367 185.334 140.932 185.294C140.472 185.287 139.733 185.278 139.372 184.947C138.488 184.137 138.87 179.12 138.867 177.76L137.022 177.766C137.026 178.944 137.308 184.324 136.564 184.938C136.199 185.24 135.38 185.203 134.922 185.219C132.065 185.323 129.179 185.238 126.319 185.238L109.365 185.21L102.722 185.197C101.502 185.196 99.9201 185.367 98.7497 185.079C98.4531 185.006 98.2708 184.848 98.1359 184.579C97.522 183.35 97.8547 179.328 97.846 177.777L96.0234 177.779C96.0264 179.144 96.3415 183.933 95.5995 184.789C95.3098 185.123 94.3716 185.15 93.9322 185.175C89.9768 185.394 85.4783 185.204 81.4755 185.203L59.346 185.19C58.7348 185.185 58.0984 185.198 57.5594 184.874C56.8652 183.719 57.2251 179.547 57.2392 178.042C56.5939 177.814 55.9473 177.62 55.6105 176.965C55.5163 176.782 55.4432 176.586 55.3705 176.395C55.4432 173.211 55.3703 170.01 55.3655 166.826L55.35 148.676L55.3367 92.9549L55.3134 62.2404L55.3276 53.9634C55.3332 52.4319 55.4426 50.8121 55.2671 49.2937Z" fill="#162E56"/>
<path d="M78.1325 177.902L93.7044 177.906L93.6964 182.746L78.1067 182.698C78.0971 181.119 77.9867 179.47 78.1325 177.902Z" fill="#3F6292"/>
<path d="M59.6953 177.915L78.1324 177.902C77.9866 179.47 78.097 181.119 78.1065 182.698C75.8773 182.625 73.622 182.694 71.3893 182.696C67.5037 182.688 63.6181 182.702 59.7325 182.738C59.6789 181.134 59.7053 179.52 59.6953 177.915Z" fill="#415978"/>
<path d="M180.341 49.4866C180.69 49.6214 180.931 49.708 181.308 49.6801C181.613 51.153 181.371 54.5529 181.371 56.2666L181.375 73.0327L181.415 147.037L181.411 168.017L181.413 173.104C181.416 173.687 181.529 174.488 181.423 175.041C181.407 175.125 181.334 175.187 181.289 175.26C181.177 175.304 181.119 175.335 180.991 175.348C180.752 175.373 180.565 175.294 180.411 175.124C180.197 173.328 180.332 171.411 180.336 169.601L180.31 160.534L180.273 128.269L180.264 77.9519L180.253 59.9298C180.257 56.4583 180.171 52.9536 180.341 49.4866Z" fill="#3C87BD"/>
<path d="M182.855 177.856C186.351 177.74 189.897 177.869 193.398 177.871L215.481 177.888L215.446 182.777C214.901 183.079 186.131 182.929 182.87 182.937L182.855 177.856Z" fill="#3F6292"/>
<path d="M111.331 177.88L126.32 177.845C129.086 177.844 131.879 177.785 134.642 177.883L134.647 182.916L111.326 182.806C107.622 182.738 103.905 182.805 100.2 182.807C100.149 181.171 100.182 179.524 100.156 177.885L111.331 177.88Z" fill="#415978"/>
<path d="M142.712 177.83L175.548 177.886L175.53 182.888L174.226 182.907L141.191 182.91C141.178 181.226 141.161 179.545 141.232 177.862L142.712 177.83Z" fill="#415978"/>
<path d="M95.897 49.1521C96.3334 49.2682 96.7699 49.4261 97.2211 49.3004C97.5504 50.7653 97.345 57.1312 97.3413 59.0076L97.3631 80.5123L97.3777 175.263L95.8906 175.276L95.897 49.1521Z" fill="#3F6292"/>
<path d="M138.092 49.2378C138.534 49.4199 138.858 49.4905 139.336 49.4752C139.725 50.5384 139.53 57.369 139.534 59.0425L139.555 79.4603L139.547 175.327L138.023 175.351C137.834 168.545 138.017 161.686 138.023 154.876L138.027 115.743L138.011 73.2453C138.012 65.25 137.866 57.2292 138.092 49.2378Z" fill="#3F6292"/>
<path d="M57.7588 51.4102C69.6226 51.2242 81.514 51.3983 93.3807 51.4076L93.3968 175.378L57.8584 175.407L57.7588 51.4102Z" fill="#24BBC4"/>
<path d="M64.6077 72.3695L79.9195 72.3622C82.1191 72.3608 84.374 72.2391 86.5662 72.3241C86.8488 72.335 87.198 72.3542 87.4525 72.4947C87.7091 72.6362 87.9339 72.9616 88.0176 73.2374C88.0316 73.2835 88.043 73.3303 88.0519 73.3777C88.0606 73.4252 88.0666 73.473 88.0699 73.5211C88.0733 73.5693 88.0738 73.6174 88.0715 73.6655C88.0694 73.7138 88.0644 73.7617 88.0567 73.8093C88.0491 73.857 88.0388 73.904 88.0258 73.9505C88.0127 73.997 87.9972 74.0425 87.979 74.0872C87.9607 74.132 87.94 74.1755 87.9168 74.2176C87.8936 74.26 87.8682 74.3009 87.8403 74.3404C87.6202 74.6495 87.3529 74.7274 87.0026 74.8165L71.8555 74.7655C69.6998 74.763 67.3687 74.9911 65.2354 74.7777C64.7697 74.7313 63.9277 74.5971 63.6206 74.1863C63.4384 73.9422 63.3991 73.765 63.4846 73.4693C63.6438 72.9193 64.1013 72.5574 64.6077 72.3695Z" fill="#162E56"/>
<path d="M64.3269 66.1565L79.5131 66.1492C81.9487 66.1449 84.515 65.9554 86.9316 66.1645C87.3223 66.1983 87.7074 66.3274 87.9336 66.6723C88.1161 66.9503 88.1253 67.2711 88.0643 67.586C87.9679 68.0837 87.7023 68.3152 87.3107 68.5919L72.6751 68.6291C70.126 68.6367 67.476 68.7914 64.9361 68.6101C64.4807 68.5774 64.0051 68.5318 63.7266 68.1141C63.5404 67.8349 63.537 67.4812 63.6011 67.164C63.7011 66.673 63.9237 66.4348 64.3269 66.1565Z" fill="#162E56"/>
<path d="M64.3507 59.9985C68.8535 59.8052 73.441 60.0011 77.9527 59.9962L83.6435 59.9893C84.7044 59.9889 85.8387 59.9148 86.8907 60.0648C87.259 60.1173 87.608 60.285 87.8063 60.6141C87.9825 60.9063 87.9702 61.2299 87.8927 61.5477C87.7662 62.0673 87.5004 62.2714 87.0704 62.5392C82.3783 62.7353 77.6212 62.5634 72.9227 62.5577C70.5509 62.5547 66.8531 62.775 64.6409 62.5074C64.2723 62.4629 63.9108 62.3226 63.6993 61.9972C63.5174 61.718 63.5171 61.4045 63.5692 61.0882C63.6625 60.5234 63.9104 60.3195 64.3507 59.9985Z" fill="#162E56"/>
<path d="M64.5305 162.835L79.3028 162.831C80.7184 162.832 85.2701 162.609 86.287 162.947C86.5783 163.043 86.802 163.255 86.9467 163.524C87.1235 163.853 87.179 164.241 87.0531 164.597C86.8765 165.097 86.6313 165.314 86.1643 165.532L72.1151 165.541C69.7928 165.537 67.1301 165.734 64.8566 165.459C64.4695 165.412 64.0934 165.309 63.832 164.997C63.6044 164.726 63.567 164.365 63.6323 164.03C63.7474 163.439 64.0381 163.149 64.5305 162.835Z" fill="#162E56"/>
<path d="M64.5492 150.828C68.9558 150.683 73.4109 150.813 77.8217 150.814C80.2744 150.814 83.6487 150.604 86.0125 150.884C86.3128 150.92 86.6608 151.055 86.8632 151.292C87.1045 151.574 87.1758 151.867 87.1251 152.232C87.0373 152.863 86.7499 153.117 86.2533 153.48C83.3445 153.62 80.3872 153.521 77.472 153.522C73.5612 153.524 69.6394 153.591 65.7302 153.517C65.1441 153.506 64.2518 153.551 63.8591 153.036C63.5892 152.681 63.6061 152.261 63.7137 151.856C63.8541 151.326 64.0919 151.107 64.5492 150.828Z" fill="#162E56"/>
<path d="M64.3928 156.888C71.2317 156.885 78.0848 156.77 84.9214 156.872C85.5068 156.881 86.4567 156.829 86.852 157.338C87.0883 157.642 87.1411 157.976 87.0862 158.348C86.9946 158.969 86.7513 159.275 86.2512 159.632L86.1297 159.639C82.1746 159.831 78.1253 159.652 74.161 159.664C71.4003 159.672 67.5393 159.895 64.8871 159.63C64.5381 159.595 64.2189 159.521 63.9742 159.249C63.7162 158.962 63.6637 158.552 63.6991 158.183C63.7557 157.593 63.9514 157.267 64.3928 156.888Z" fill="#162E56"/>
<path d="M61.7822 108.901C63.3436 108.816 66.0335 108.625 67.5354 109.006C68.353 109.213 68.9185 109.662 69.333 110.398C69.5373 110.761 69.6783 111.136 69.7229 111.551C69.8865 113.073 69.8956 126.067 69.57 127.077C69.2022 128.22 68.3503 128.898 67.3053 129.389C66.0625 129.786 63.0013 129.829 61.7548 129.383C60.8938 129.075 60.2481 128.446 59.8761 127.615C59.6268 127.058 59.5127 126.456 59.4668 125.851C59.3041 123.713 59.4694 121.481 59.4682 119.333C59.4668 116.924 59.3105 114.462 59.4392 112.062C59.4668 111.542 59.5384 110.986 59.7504 110.507C60.1455 109.615 60.9158 109.224 61.7822 108.901Z" fill="#162E56"/>
<path d="M62.8644 111.221C63.751 111.221 64.6375 111.192 65.5244 111.201C66.0378 111.206 66.9756 111.142 67.3444 111.52C67.5226 113.219 67.6664 125.82 67.3926 126.426C67.1822 126.891 66.8522 127.065 66.4092 127.278C65.3229 127.338 63.5211 127.531 62.5112 127.152C62.269 127.061 62.157 126.94 62.0576 126.697C61.8876 126.281 61.8213 125.81 61.7987 125.364C61.6934 123.285 61.8174 121.133 61.8277 119.047C61.8396 116.725 61.7471 114.372 61.8031 112.056C61.8086 111.831 61.8634 111.667 61.9445 111.46C62.2689 111.206 62.4599 111.249 62.8644 111.221Z" fill="#FEFEFE"/>
<path d="M64.0077 114.037C64.443 113.991 64.8877 113.953 65.3145 114.076C65.8903 114.243 66.3864 114.683 66.6743 115.203C67.1788 116.113 67.2056 117.487 66.9035 118.465C66.6366 119.33 66.2029 119.714 65.413 120.107C64.9496 120.176 64.4629 120.206 64.0125 120.05C63.4296 119.848 62.9614 119.37 62.6995 118.82C62.2487 117.872 62.2274 116.501 62.577 115.519C62.8584 114.729 63.2779 114.404 64.0077 114.037Z" fill="#162E56"/>
<path d="M64.4661 115.56C64.8223 115.627 65.0284 115.617 65.283 115.914C65.5287 116.2 65.6045 116.739 65.5764 117.099C65.5295 117.702 65.445 118.037 64.9853 118.446C64.72 118.407 64.4446 118.388 64.2483 118.18C63.986 117.902 63.8679 117.452 63.8789 117.078C63.8967 116.463 64.0279 115.998 64.4661 115.56Z" fill="#BD5C2B"/>
<path d="M99.8165 51.4355L135.605 51.4099L135.582 175.229C123.662 175.112 111.732 175.277 99.811 175.278L99.8165 51.4355Z" fill="#24BBC4"/>
<path d="M106.03 72.4465C110.64 72.2653 115.325 72.4243 119.945 72.4204C122.757 72.4181 126.202 72.1979 128.92 72.4442C129.314 72.4799 129.702 72.6316 129.929 72.9736C130.109 73.2442 130.138 73.5883 130.075 73.9004C129.98 74.3776 129.706 74.5725 129.323 74.8183L113.477 74.8154C111.352 74.8156 108.316 75.0217 106.301 74.7642C105.967 74.7214 105.643 74.6138 105.424 74.3393C105.191 74.0466 105.197 73.6646 105.287 73.322C105.406 72.8676 105.643 72.6876 106.03 72.4465Z" fill="#162E56"/>
<path d="M106.996 66.2074L121.456 66.1578C123.852 66.1512 126.371 65.9818 128.749 66.1874C129.116 66.2192 129.485 66.2345 129.766 66.5062C130 66.7313 130.14 67.0731 130.159 67.3937C130.18 67.7316 130.072 67.9903 129.843 68.2387C129.525 68.5828 129.052 68.653 128.611 68.6562L114.03 68.6379C111.635 68.6388 109.186 68.7485 106.797 68.6347C106.465 68.619 105.984 68.5993 105.707 68.4009C105.414 68.1902 105.264 67.8569 105.23 67.5057C105.198 67.1611 105.252 66.7861 105.519 66.5391C105.916 66.1717 106.495 66.2106 106.996 66.2074Z" fill="#162E56"/>
<path d="M106.819 150.829C109.655 150.729 112.524 150.815 115.364 150.809C119.236 150.802 123.12 150.73 126.992 150.797C127.578 150.807 128.351 150.792 128.748 151.307C129.005 151.639 129.051 152.014 128.979 152.415C128.885 152.934 128.611 153.189 128.201 153.489C125.877 153.636 123.479 153.509 121.147 153.513L108.246 153.536C107.614 153.533 106.554 153.577 106.129 153.03C105.897 152.733 105.873 152.373 105.94 152.018C106.054 151.405 106.309 151.157 106.819 150.829Z" fill="#162E56"/>
<path d="M106.599 60.0367L122.748 60.0586C124.602 60.0695 126.544 59.8808 128.385 60.0124C128.818 60.0435 129.274 60.1221 129.648 60.3552C129.962 60.551 130.17 60.8494 130.233 61.2143C130.279 61.4888 130.21 61.7445 130.049 61.9675C129.756 62.3742 129.398 62.4873 128.921 62.5547L113.949 62.5579C111.698 62.5597 109.362 62.7009 107.12 62.589C106.721 62.5691 106.297 62.5122 105.925 62.3596C105.609 62.2301 105.307 62.0171 105.209 61.6721C105.115 61.3421 105.275 60.8588 105.457 60.5771C105.714 60.1816 106.169 60.1059 106.599 60.0367Z" fill="#162E56"/>
<path d="M106.574 163.171C109.239 162.912 112.332 163.142 115.056 163.149C119.157 163.158 123.307 163.005 127.402 163.169C127.72 163.181 128.18 163.175 128.451 163.362C128.787 163.595 128.985 163.889 129.01 164.305C129.048 164.933 128.693 165.37 128.28 165.786C128.171 165.817 128.167 165.821 128.036 165.842C127.228 165.972 126.307 165.891 125.488 165.891L120.446 165.885L112.097 165.882C110.545 165.881 108.958 165.942 107.411 165.836C107.036 165.811 106.652 165.78 106.358 165.52C106.071 165.266 105.967 164.908 105.971 164.536C105.977 163.95 106.172 163.58 106.574 163.171Z" fill="#162E56"/>
<path d="M106.836 156.894C111.15 156.82 115.474 156.896 119.789 156.886C122.342 156.88 125.071 156.679 127.607 156.897C128.051 156.935 128.541 157.06 128.811 157.45C129.063 157.813 129.096 158.225 128.989 158.644C128.854 159.169 128.581 159.379 128.137 159.658C125.073 159.912 121.839 159.722 118.756 159.724C115.058 159.726 111.286 159.885 107.598 159.706C107.056 159.68 106.482 159.678 106.13 159.19C105.937 158.922 105.902 158.587 105.946 158.269C106.04 157.588 106.289 157.281 106.836 156.894Z" fill="#162E56"/>
<path d="M116.236 98.0718C116.756 98.0133 117.292 98.0163 117.814 98.014C120.793 98.001 123.747 99.4266 125.82 101.526C129.509 105.263 129.206 109.321 129.188 114.157C129.385 114.326 129.577 114.505 129.764 114.685C130.768 115.652 131.026 116.599 131.038 117.949L131.032 131.54C131.034 133.294 131.256 136.629 130.96 138.239C130.83 138.941 130.456 139.739 129.936 140.235C129.447 140.701 128.805 141.009 128.151 141.163C126.404 141.572 121.105 141.3 118.956 141.29C115.416 141.288 111.849 141.376 108.311 141.262C107.093 141.223 105.892 141.092 105.034 140.133C104.571 139.617 104.232 138.917 104.147 138.225C104.009 137.104 104.064 135.927 104.061 134.798L104.051 129.135L104.041 121.598C104.037 120.146 103.975 118.664 104.056 117.215C104.138 115.756 104.794 114.913 105.847 113.971C105.802 109.77 105.536 105.885 108.336 102.423C110.348 99.9362 113.054 98.4114 116.236 98.0718Z" fill="#162E56"/>
<path d="M120.583 100.667C123.146 101.616 125.024 103.1 126.198 105.621C127.355 108.104 127.088 110.812 127.067 113.477L125.135 113.474C125.158 110.18 125.482 106.836 122.955 104.298C122.84 104.184 122.721 104.072 122.599 103.965C122.476 103.858 122.351 103.755 122.222 103.656C122.093 103.557 121.961 103.462 121.826 103.371C121.691 103.281 121.553 103.194 121.413 103.113C121.272 103.031 121.129 102.954 120.983 102.881C120.838 102.809 120.69 102.741 120.54 102.678C120.39 102.615 120.239 102.557 120.085 102.503C119.931 102.45 119.776 102.402 119.619 102.359C119.902 101.777 120.256 101.224 120.583 100.667Z" fill="#FEFEFE"/>
<path d="M107.91 113.459C107.907 111.518 107.693 109.312 108.172 107.426C108.789 104.994 110.433 102.78 112.602 101.511C115.14 100.026 117.801 99.9177 120.583 100.667C120.255 101.224 119.901 101.777 119.619 102.359C118.893 102.159 118.088 102.065 117.335 102.074C115.346 102.099 113.509 102.935 112.127 104.353C109.535 107.013 109.726 109.993 109.754 113.457L107.91 113.459Z" fill="#93C8D8"/>
<path d="M110.663 139.075C109.959 139.108 109.253 139.149 108.548 139.161C107.904 139.171 107.151 139.1 106.679 138.608C106.632 138.559 106.451 138.379 106.432 138.315C106.137 137.307 106.335 132.479 106.335 131.073C106.334 126.653 106.251 122.225 106.302 117.805C106.309 117.153 106.295 116.607 106.824 116.137C107.893 115.188 114.883 115.622 116.652 115.647C114.825 115.909 111.135 116.639 109.963 118.11C109.654 119.699 109.773 121.416 109.768 123.029L109.751 130.26C109.748 132.426 109.544 134.86 109.782 136.993C109.861 137.702 110.165 138.327 110.554 138.917C110.59 138.97 110.627 139.022 110.663 139.075Z" fill="#BD5C2B"/>
<path d="M117.023 104.119C117.157 104.105 117.291 104.097 117.426 104.095C118.854 104.078 120.357 104.644 121.367 105.652C123.519 107.798 123.129 110.687 123.107 113.451L117.814 113.441L111.808 113.447C111.804 111.107 111.56 108.556 112.966 106.53C113.943 105.122 115.365 104.389 117.023 104.119Z" fill="#FEFEFE"/>
<path d="M116.652 115.647C118.841 115.561 121.039 115.58 123.23 115.571C124.549 115.566 125.961 115.451 127.261 115.661C127.592 115.714 127.896 115.813 128.149 116.041C128.545 116.399 128.775 116.975 128.878 117.489C128.766 122.162 128.815 126.847 128.819 131.521C128.82 133.505 128.984 135.604 128.814 137.574C128.782 137.951 128.717 138.375 128.465 138.675C128.294 138.879 128.041 138.974 127.798 139.061C122.094 139.225 116.369 139.107 110.663 139.075C110.627 139.022 110.59 138.97 110.554 138.917C110.165 138.327 109.861 137.702 109.782 136.993C109.544 134.86 109.748 132.427 109.751 130.26L109.768 123.029C109.773 121.416 109.654 119.699 109.963 118.11C111.135 116.639 114.825 115.909 116.652 115.647Z" fill="#E27E2C"/>
<path d="M117.476 121.251C117.489 121.252 117.5 121.252 117.513 121.253C118.387 121.31 119.139 121.586 119.726 122.264C120.394 123.036 120.669 124.14 120.597 125.144C120.509 126.356 119.96 127.111 119.067 127.864C118.97 129.512 119.341 131.533 118.904 133.1C118.749 133.657 118.408 133.825 117.931 134.085C117.52 134.052 117.09 134.061 116.758 133.775C115.843 132.99 116.216 129.244 116.217 127.976C115.445 127.352 114.944 126.696 114.726 125.707C114.502 124.692 114.676 123.456 115.267 122.589C115.82 121.779 116.543 121.446 117.476 121.251Z" fill="#162E56"/>
<path d="M117.253 123.362C117.719 123.359 118.058 123.401 118.384 123.755C118.415 123.79 118.445 123.825 118.473 123.862C118.502 123.9 118.528 123.938 118.552 123.978C118.576 124.017 118.599 124.058 118.619 124.1C118.639 124.142 118.658 124.185 118.674 124.228C118.69 124.272 118.704 124.317 118.715 124.362C118.727 124.407 118.737 124.452 118.744 124.498C118.751 124.544 118.756 124.591 118.759 124.637C118.761 124.684 118.762 124.73 118.76 124.777C118.742 125.351 118.546 125.672 118.123 126.043C117.663 126.068 117.263 126.082 116.9 125.752C116.638 125.513 116.511 125.182 116.514 124.832C116.519 124.198 116.81 123.782 117.253 123.362Z" fill="#E27E2C"/>
<path d="M127.798 139.061C127.41 138.934 126.974 138.777 126.701 138.459C126.526 138.256 126.473 138.042 126.452 137.782C126.363 136.662 126.434 135.477 126.435 134.35L126.435 127.777L126.435 121.811C126.435 120.502 126.366 119.149 126.534 117.85C126.77 117.498 127.014 117.106 127.466 117.017C127.995 116.913 128.449 117.229 128.877 117.489C128.766 122.162 128.815 126.847 128.819 131.521C128.82 133.505 128.983 135.604 128.814 137.574C128.781 137.951 128.717 138.375 128.465 138.675C128.294 138.878 128.041 138.974 127.798 139.061Z" fill="#FEDFBA"/>
<path d="M183.83 51.4509L219.638 51.4553L219.632 175.35C218.673 175.537 217.444 175.404 216.455 175.399L210.076 175.373L183.884 175.37L183.83 51.4509Z" fill="#365A99"/>
<path d="M190.416 72.3585L190.532 72.3557C194.791 72.2819 199.063 72.3806 203.324 72.376C205.637 72.3737 208.39 72.1571 210.66 72.3982C210.999 72.4341 211.273 72.5114 211.503 72.7821C211.701 73.0157 211.755 73.3157 211.725 73.6125C211.673 74.1181 211.423 74.3935 211.055 74.7164C210.975 74.7193 210.895 74.7217 210.816 74.7237C206.378 74.8201 201.925 74.7596 197.486 74.7545C195.345 74.752 192.686 74.9629 190.592 74.6707C190.302 74.63 190.048 74.54 189.849 74.3097C189.592 74.0131 189.504 73.5595 189.594 73.1802C189.702 72.725 190.038 72.5552 190.416 72.3585Z" fill="#162E56"/>
<path d="M190.506 60.1469L206.103 60.1291C207.416 60.1318 209.631 59.7932 210.809 60.1892C211.164 60.3087 211.409 60.536 211.569 60.8724C211.72 61.1898 211.684 61.618 211.528 61.9256C211.359 62.2585 211.103 62.4164 210.757 62.5324L196.128 62.5512C194.726 62.5535 192.004 62.7723 190.794 62.5948C190.397 62.5366 189.962 62.3759 189.749 62.0117C189.564 61.6938 189.52 61.1797 189.675 60.836C189.864 60.4202 190.099 60.282 190.506 60.1469Z" fill="#162E56"/>
<path d="M190.211 66.1632C190.385 66.1521 190.559 66.1445 190.733 66.1406C195.002 66.0453 199.285 66.12 203.556 66.1268C205.883 66.1308 208.399 65.9438 210.711 66.1789C211.075 66.2159 211.372 66.2749 211.622 66.569C211.794 66.7694 211.848 66.997 211.83 67.2554C211.79 67.842 211.542 68.1605 211.111 68.5341C210.983 68.54 210.854 68.545 210.726 68.549C206.535 68.6541 202.312 68.5613 198.118 68.5645C195.742 68.5663 193.028 68.772 190.697 68.5444C190.343 68.5099 190.063 68.428 189.82 68.1468C189.645 67.9434 189.575 67.6975 189.578 67.4327C189.585 66.8445 189.794 66.5468 190.211 66.1632Z" fill="#162E56"/>
<path d="M190.557 163.738C195.371 163.605 200.219 163.735 205.038 163.722C206.517 163.718 211.092 163.5 212.124 163.771C212.432 163.852 212.653 164.075 212.811 164.345C212.997 164.664 213.063 165.033 212.94 165.389C212.76 165.905 212.48 166.118 211.997 166.343C205.138 166.384 198.243 166.625 191.387 166.473C190.84 166.461 190.215 166.437 189.852 165.955C189.625 165.655 189.58 165.303 189.65 164.945C189.768 164.34 190.053 164.059 190.557 163.738Z" fill="#162E56"/>
<path d="M190.701 150.71C195.901 150.86 201.125 150.807 206.327 150.819C207.636 150.822 210.686 150.615 211.726 150.852C212.251 150.971 212.815 151.275 213.063 151.777C213.181 152.014 213.214 152.329 213.11 152.578C212.93 153.009 212.509 153.332 212.094 153.51C209.649 153.528 191.414 153.724 190.421 153.387C190.135 153.29 189.932 153.083 189.796 152.817C189.607 152.449 189.511 151.959 189.68 151.567C189.871 151.125 190.296 150.915 190.701 150.71Z" fill="#162E56"/>
<path d="M190.547 157.021C192.787 156.963 211.408 156.869 212.043 157.105C212.481 157.268 212.858 157.59 212.994 158.049C213.016 158.124 213.03 158.2 213.037 158.277C213.044 158.354 213.044 158.432 213.036 158.509C213.029 158.586 213.014 158.662 212.991 158.737C212.969 158.811 212.94 158.883 212.904 158.952C212.687 159.373 212.354 159.55 211.927 159.708C207.48 159.792 203.023 159.711 198.574 159.736C196.477 159.747 193.034 159.983 191.087 159.702C190.509 159.618 189.953 159.472 189.593 158.982C189.514 158.601 189.458 158.074 189.642 157.714C189.855 157.298 190.121 157.165 190.547 157.021Z" fill="#162E56"/>
<path d="M187.294 109.361C188.918 109.288 191.481 109.116 193.021 109.402C193.848 109.556 194.445 109.948 194.912 110.653C195.175 111.05 195.299 111.418 195.356 111.887C195.532 113.335 195.553 125.452 195.284 126.546C194.955 127.889 193.913 128.856 192.789 129.562C191.503 130.097 190.123 130.345 188.748 130.006C187.617 129.727 186.716 128.983 186.129 127.988C185.714 127.285 185.493 126.502 185.398 125.695C185.144 123.532 185.352 121.161 185.349 118.976C185.347 116.917 185.193 114.843 185.243 112.787C185.254 112.312 185.286 111.827 185.418 111.369C185.7 110.389 186.424 109.811 187.294 109.361Z" fill="#162E56"/>
<path d="M187.447 113.956C187.411 113.234 187.267 112.395 187.683 111.764C188.554 111.433 192.047 111.378 192.907 111.672C193.399 112.267 193.258 113.005 193.226 113.728L193.248 122.172C193.25 123.344 193.42 124.845 193.169 125.98C193.079 126.387 192.81 126.753 192.515 127.039C191.891 127.645 190.966 127.964 190.101 127.917C189.321 127.875 188.517 127.507 188.004 126.912C187.801 126.676 187.599 126.368 187.537 126.06C187.284 124.805 187.434 123.293 187.433 122.002L187.447 113.956Z" fill="#DFE2E2"/>
<path d="M187.447 113.956C187.411 113.234 187.268 112.395 187.683 111.764C188.554 111.433 192.047 111.378 192.907 111.672C193.4 112.267 193.258 113.005 193.226 113.728C192.978 114.742 193.1 115.949 193.096 116.997C193.119 117.59 193.228 118.288 193.028 118.851L192.88 118.925L192.494 118.714C192.467 118.747 192.44 118.781 192.412 118.814L192.281 118.968C192.078 119.211 191.893 119.421 191.623 119.594C191.087 119.937 190.368 120.164 189.735 119.993C188.965 119.783 188.583 119.254 188.182 118.607C188.142 118.648 188.089 118.674 188.04 118.704C187.857 118.816 187.965 118.786 187.696 118.721C187.204 117.408 187.785 115.404 187.447 113.956Z" fill="#162E56"/>
<path d="M190.196 115.582C190.47 115.652 190.673 115.729 190.869 115.943C191.118 116.215 191.208 116.735 191.181 117.089C191.134 117.688 190.998 118.022 190.552 118.423C190.326 118.371 190.059 118.324 189.869 118.183C189.562 117.955 189.421 117.485 189.428 117.117C189.441 116.471 189.724 115.996 190.196 115.582Z" fill="#BD5C2B"/>
<path d="M187.447 113.956C187.411 113.234 187.268 112.395 187.683 111.764C188.554 111.433 192.047 111.378 192.907 111.672C193.4 112.267 193.258 113.005 193.226 113.728C192.978 114.742 193.1 115.949 193.096 116.997C193.119 117.59 193.228 118.288 193.028 118.851L192.88 118.925L192.494 118.714C192.773 117.886 192.792 117.142 192.791 116.279C192.559 115.413 192.174 114.587 191.364 114.117C190.862 113.827 190.288 113.772 189.738 113.954C189.076 114.174 188.574 114.716 188.296 115.344C187.846 116.36 187.937 117.549 188.182 118.607C188.142 118.648 188.089 118.674 188.04 118.704C187.857 118.816 187.965 118.786 187.696 118.721C187.204 117.408 187.785 115.404 187.447 113.956Z" fill="#FEFEFE"/>
<path d="M142.046 51.4097L177.828 51.4001L177.857 137.101L177.83 162.207L177.866 170.191C177.876 171.853 177.939 173.542 177.828 175.2L142.019 175.192C142.23 160.4 142.001 145.585 141.986 130.791L142.046 51.4097Z" fill="#24BBC4"/>
<path d="M148.467 66.2899C148.568 66.2785 148.67 66.2691 148.772 66.2618C150.194 66.1581 151.655 66.223 153.082 66.2253L160.595 66.2408L166.789 66.257C167.884 66.26 169.035 66.1981 170.121 66.3164C170.516 66.3596 170.802 66.4175 171.092 66.7133C171.302 66.927 171.387 67.168 171.372 67.4658C171.346 67.9753 171.121 68.2116 170.757 68.5228C169.297 68.6435 167.777 68.5663 166.308 68.5685L158.218 68.5802L152.131 68.5877C151.111 68.5893 150.022 68.6716 149.008 68.561C148.642 68.521 148.278 68.409 148.015 68.1367C147.799 67.9128 147.729 67.6203 147.762 67.3191C147.818 66.8145 148.091 66.5803 148.467 66.2899Z" fill="#162E56"/>
<path d="M148.922 72.3721L164.231 72.4044C166.119 72.4071 168.041 72.2997 169.923 72.3559C170.164 72.363 170.388 72.4085 170.606 72.5142C170.969 72.6904 171.258 72.9927 171.35 73.3963C171.366 73.4659 171.375 73.5363 171.377 73.6076C171.379 73.6789 171.374 73.7498 171.362 73.8202C171.35 73.8905 171.331 73.959 171.305 74.0256C171.28 74.0921 171.248 74.1556 171.21 74.2159C170.957 74.6158 170.646 74.7053 170.214 74.788C165.016 74.7099 159.812 74.7803 154.613 74.7519C152.974 74.743 151.284 74.8963 149.653 74.7964C149.288 74.774 148.924 74.7325 148.579 74.6027C148.257 74.4813 147.948 74.2615 147.844 73.916C147.764 73.6489 147.82 73.2433 147.953 72.9981C148.151 72.6322 148.549 72.4818 148.922 72.3721Z" fill="#162E56"/>
<path d="M148.483 60.2232C150.787 60.0525 153.186 60.1759 155.5 60.1729L168.426 60.1617C169.211 60.1627 170.601 59.9764 171.141 60.6521C171.349 60.911 171.377 61.2124 171.327 61.5275C171.244 62.0526 171.018 62.2763 170.598 62.577C168.102 62.8067 165.432 62.6326 162.918 62.6358C158.636 62.6408 154.337 62.7219 150.056 62.6351C149.389 62.6216 148.374 62.7 147.923 62.113C147.773 61.9176 147.726 61.6889 147.745 61.4476C147.792 60.8772 148.059 60.576 148.483 60.2232Z" fill="#162E56"/>
<path d="M148.793 163.66L163.213 163.726C165.37 163.732 167.553 163.625 169.706 163.704C170.121 163.719 170.658 163.739 171.034 163.918C171.3 164.045 171.508 164.222 171.597 164.513C171.697 164.839 171.617 165.212 171.482 165.516C171.273 165.983 170.994 166.155 170.532 166.338C168.081 166.335 149.149 166.477 148.53 166.215C148.175 166.065 147.892 165.806 147.76 165.436C147.629 165.066 147.669 164.647 147.855 164.304C148.079 163.891 148.37 163.77 148.793 163.66Z" fill="#162E56"/>
<path d="M148.646 150.719L164.198 150.712C165.746 150.711 169.196 150.48 170.492 150.791C170.935 150.897 171.279 151.113 171.497 151.52C171.651 151.806 171.623 152.195 171.521 152.492C171.343 153.006 171.002 153.193 170.536 153.424C165.669 153.48 160.795 153.432 155.927 153.43C154.329 153.43 149.72 153.664 148.516 153.294C148.154 153.183 147.89 152.951 147.72 152.617C147.574 152.329 147.597 151.939 147.693 151.64C147.855 151.136 148.196 150.946 148.646 150.719Z" fill="#162E56"/>
<path d="M148.95 156.916L162.983 156.885C165.209 156.881 167.572 156.71 169.783 156.887C170.199 156.92 170.611 156.988 170.959 157.234C171.274 157.455 171.434 157.778 171.482 158.153C171.53 158.525 171.458 158.875 171.223 159.171C170.975 159.484 170.691 159.566 170.312 159.628C167.629 159.626 148.997 159.842 148.223 159.427C147.919 159.264 147.672 158.959 147.606 158.615C147.531 158.228 147.605 157.813 147.832 157.486C148.122 157.072 148.485 156.996 148.95 156.916Z" fill="#162E56"/>
<path d="M146.34 108.779C148.023 108.711 150.137 108.527 151.774 108.855C152.586 109.018 153.267 109.37 153.714 110.088C153.775 110.184 153.83 110.283 153.879 110.386C153.928 110.489 153.97 110.594 154.007 110.701C154.043 110.809 154.073 110.918 154.097 111.03C154.12 111.141 154.137 111.253 154.147 111.366C154.29 112.864 154.082 114.498 154.063 116.014L154.008 122.352C154 123.76 154.174 125.504 153.819 126.868C153.501 128.093 152.538 128.978 151.503 129.62C151.417 129.661 151.33 129.701 151.241 129.737C149.81 130.316 148.253 130.325 146.839 129.682C146.769 129.65 146.699 129.617 146.631 129.581C146.562 129.546 146.495 129.509 146.428 129.47C146.362 129.431 146.296 129.391 146.232 129.349C146.167 129.307 146.103 129.263 146.041 129.217C145.979 129.172 145.918 129.125 145.858 129.077C145.798 129.028 145.74 128.978 145.682 128.926C145.625 128.875 145.569 128.822 145.514 128.768C145.46 128.713 145.406 128.657 145.355 128.6C145.303 128.543 145.253 128.485 145.204 128.425C145.155 128.365 145.108 128.304 145.063 128.242C145.017 128.18 144.973 128.117 144.93 128.052C144.888 127.988 144.847 127.923 144.808 127.856C144.769 127.79 144.732 127.722 144.697 127.654C144.661 127.585 144.627 127.516 144.595 127.446C144.563 127.376 144.533 127.305 144.505 127.233C144.477 127.162 144.45 127.089 144.425 127.016C144.246 126.489 144.161 125.936 144.128 125.381C143.977 122.814 144.153 120.187 144.122 117.611C144.099 115.706 143.848 113.686 143.99 111.795C144.027 111.3 144.107 110.794 144.333 110.346C144.749 109.526 145.487 109.047 146.34 108.779Z" fill="#162E56"/>
<path d="M146.613 111.061C148.126 111.037 150.217 110.764 151.637 111.233C151.806 111.404 151.781 111.35 151.803 111.56C151.954 112.963 151.969 125.102 151.75 126.032C151.632 126.537 151.274 126.944 150.953 127.335C150.849 127.419 150.744 127.501 150.633 127.576C150.055 127.968 149.31 128.137 148.623 127.998C147.582 127.786 146.948 127.051 146.406 126.201C146.437 123.215 146.397 120.229 146.289 117.244C146.238 115.48 146.036 113.549 146.218 111.796C146.253 111.464 146.402 111.299 146.613 111.061Z" fill="#FEFEFE"/>
<path d="M148.715 113.814C149.042 113.809 149.355 113.817 149.67 113.916C150.318 114.121 150.833 114.638 151.106 115.252C151.543 116.238 151.569 117.805 151.126 118.799C150.742 119.661 150.18 119.966 149.332 120.282C148.924 120.239 148.53 120.179 148.155 120.002C147.513 119.7 147.042 119.102 146.811 118.439C146.467 117.454 146.549 116.153 147.019 115.221C147.398 114.469 147.923 114.066 148.715 113.814Z" fill="#162E56"/>
<path d="M148.806 115.562C149.055 115.607 149.308 115.643 149.497 115.828C149.802 116.128 149.93 116.694 149.912 117.108C149.883 117.809 149.76 118.271 149.221 118.731C148.966 118.657 148.704 118.627 148.506 118.443C148.201 118.162 148.057 117.638 148.078 117.231C148.114 116.524 148.281 116.035 148.806 115.562Z" fill="#BD5C2B"/>
</svg>
