<svg width="244" height="135" viewBox="0 0 244 135" fill="none" xmlns="http://www.w3.org/2000/svg">
<path d="M94.2485 52.1586V63.3108H73.6029C72.1388 63.3108 70.689 63.0223 69.3364 62.4617C67.9838 61.9012 66.755 61.0796 65.7201 60.0439C64.6852 59.0082 63.8645 57.7787 63.305 56.4257C62.7455 55.0727 62.458 53.6227 62.4591 52.1586H94.2485Z" fill="#24BBC4"/>
<path d="M124.71 54.0059C123.629 54.0052 122.58 53.645 121.727 52.9822C120.874 52.3193 120.266 51.3915 119.998 50.3448L113.014 23.0051C111.863 18.5123 112.448 13.7509 114.653 9.67062C116.857 5.5903 120.519 2.49098 124.908 0.99085C129.296 -0.50928 134.089 -0.299949 138.33 1.57708C142.571 3.45411 145.948 6.86087 147.788 11.1179L166.009 53.2117C167.077 55.6759 163.12 51.384 160.658 52.4514C158.197 53.5187 157.73 58.5654 156.662 56.1124L138.864 14.9958C137.996 12.9846 136.402 11.3747 134.4 10.4875C132.397 9.60032 130.133 9.50118 128.061 10.2099C125.989 10.9186 124.26 12.383 123.22 14.3106C122.18 16.2383 121.905 18.4873 122.451 20.6085L129.427 47.9342C129.745 49.1837 129.554 50.5083 128.896 51.6171C128.238 52.7259 127.167 53.5284 125.918 53.8482C125.523 53.9517 125.117 54.0047 124.71 54.0059Z" fill="#2C599D"/>
<path d="M202.919 75.052L173.447 28.0889H104.039L86.114 28.1086C90.0344 30.7199 93.28 34.2233 95.5847 38.3314C97.8894 42.4395 99.1875 47.0354 99.3727 51.7423C99.3727 51.7423 99.4262 52.4998 99.4262 52.8687V76.432C99.4262 79.3288 100.576 82.1073 102.622 84.1575C104.669 86.2077 107.445 87.3621 110.342 87.3673H196.11C202.435 87.3758 206.287 80.4028 202.919 75.052ZM189.283 76.2236H113.442C113.067 76.2236 112.694 76.1494 112.347 76.0054C112 75.8614 111.685 75.6504 111.419 75.3844C111.154 75.1183 110.943 74.8025 110.8 74.4551C110.657 74.1076 110.583 73.7353 110.584 73.3595V39.2411H167.274L189.86 75.1787C189.925 75.2819 189.961 75.4006 189.965 75.5225C189.968 75.6444 189.939 75.7649 189.88 75.8716C189.821 75.9784 189.735 76.0673 189.63 76.1292C189.525 76.1911 189.405 76.2237 189.283 76.2236Z" fill="#2C599D"/>
<path d="M125.918 62.1287C130.488 62.1287 134.192 58.4242 134.192 53.8546C134.192 49.285 130.488 45.5806 125.918 45.5806C121.348 45.5806 117.644 49.285 117.644 53.8546C117.644 58.4242 121.348 62.1287 125.918 62.1287Z" fill="#2C599D"/>
<path d="M161.047 62.1287C165.617 62.1287 169.321 58.4242 169.321 53.8546C169.321 49.285 165.617 45.5806 161.047 45.5806C156.477 45.5806 152.773 49.285 152.773 53.8546C152.773 58.4242 156.477 62.1287 161.047 62.1287Z" fill="#2C599D"/>
<path d="M98.6618 87.3615C96.0349 84.6124 94.4708 81.019 94.2488 77.2231V52.8798C94.2488 46.307 91.6378 40.0035 86.9901 35.3558C82.3425 30.7082 76.0389 28.0971 69.4661 28.0971H40.0001C39.9983 29.5609 40.2853 31.0107 40.8447 32.3634C41.4041 33.7161 42.2249 34.9452 43.2601 35.9801C44.2953 37.015 45.5245 37.8355 46.8774 38.3946C48.2302 38.9537 49.6801 39.2403 51.1439 39.2381H69.3563C71.1639 39.2381 72.9538 39.5941 74.6237 40.286C76.2937 40.9778 77.811 41.9918 79.0891 43.2701C80.3671 44.5484 81.3808 46.0659 82.0723 47.736C82.7638 49.4061 83.1195 51.1961 83.1191 53.0037V76.229C83.1221 79.1801 84.2955 82.0095 86.382 84.0965C88.4685 86.1836 91.2977 87.3577 94.2488 87.3615H98.6505H98.6618Z" fill="#24BBC4"/>
<path d="M0 105.602H20.2936V110.7H5.48034V116.864H17.8125V121.829H5.48034V133.604H0V105.602Z" fill="#2C599D"/>
<path d="M30.566 117.213C30.566 109.722 34.8494 105.056 42.7686 105.056C50.6878 105.056 55.0557 109.722 55.0557 117.213V133.603H49.5754V125.211H35.9196V133.603H30.5688L30.566 117.213ZM49.5754 120.255V117.213C49.5754 112.707 47.3506 110.15 42.7264 110.15C38.1022 110.15 35.9196 112.707 35.9196 117.213V120.255H49.5754Z" fill="#2C599D"/>
<path d="M67.0424 105.602H72.5227V133.604H67.0424V105.602Z" fill="#2C599D"/>
<path d="M85.1539 105.602H96.8834C103.992 105.602 107.118 109.5 107.118 114.851C107.118 119.261 105.019 122.3 101.251 123.541L108.143 133.604H101.637L95.6837 124.141H90.6342V133.604H85.1539V105.602ZM96.982 119.047C100.449 119.047 101.603 117.25 101.603 114.851C101.603 112.451 100.449 110.7 96.982 110.7H90.6455V119.047H96.982Z" fill="#2C599D"/>
<path d="M136.398 123.629V105.605H141.878V123.629C141.878 127.481 143.934 129.064 146.629 129.064C149.325 129.064 151.383 127.439 151.383 123.629V105.605H156.864V123.629C156.864 127.439 158.919 129.064 161.614 129.064C164.31 129.064 166.368 127.481 166.368 123.629V105.605H171.84V123.629C171.84 130.821 167.616 134.158 162.079 134.158C158.525 134.158 155.743 132.66 154.115 129.878C152.487 132.66 149.705 134.158 146.151 134.158C140.637 134.158 136.398 130.821 136.398 123.629Z" fill="#2C599D"/>
<path d="M183.105 117.213C183.105 109.722 187.389 105.055 195.308 105.055C203.227 105.055 207.606 109.713 207.606 117.213V133.603H202.115V125.211H188.456V133.603H183.105V117.213ZM202.115 120.255V117.213C202.115 112.707 199.89 110.15 195.266 110.15C190.684 110.142 188.456 112.707 188.456 117.213V120.255H202.115Z" fill="#2C599D"/>
<path d="M227.931 121.787L217.229 105.602H223.707L230.64 116.906L237.664 105.602H244L233.425 121.655V133.604H227.931V121.787Z" fill="#2C599D"/>
</svg>
