<svg width="12" height="15" viewBox="0 0 12 15" fill="none" xmlns="http://www.w3.org/2000/svg">
<path fill-rule="evenodd" clip-rule="evenodd" d="M4.38102 13.7619C2.03422 13.04 0.494135 10.7963 0.664016 8.34689C0.685376 7.01661 1.24841 5.75258 2.22302 4.84689C2.37384 4.70682 2.58081 4.6441 2.78402 4.67689C3.14802 4.73589 3.02602 5.37689 2.96702 5.74189C2.87131 6.20647 2.96695 6.69002 3.23232 7.08317C3.49769 7.47633 3.91036 7.74589 4.37702 7.83089C6.37702 7.83089 3.00502 3.83889 6.50502 0.098894C6.59664 0.0069112 6.73622 -0.0174888 6.85362 0.0379552C6.97102 0.0933991 7.04085 0.216698 7.02802 0.345894C6.94802 2.34589 9.51402 4.39789 10.34 5.54589C11.6822 7.41787 11.6755 9.93875 10.3234 11.8036C8.97136 13.6684 6.5775 14.4585 4.38102 13.7649V13.7619Z" fill="#C1C7D0"/>
</svg>
