<svg width="14" height="12" viewBox="0 0 14 12" fill="none" xmlns="http://www.w3.org/2000/svg">
<path fill-rule="evenodd" clip-rule="evenodd" d="M2.5 1.5C2.5 1.20163 2.38147 0.915483 2.1705 0.704505C1.95952 0.493526 1.67337 0.375 1.375 0.375C1.07663 0.375 0.790483 0.493526 0.579505 0.704505C0.368526 0.915483 0.25 1.20163 0.25 1.5C0.25 1.79837 0.368526 2.08452 0.579505 2.2955C0.790483 2.50647 1.07663 2.625 1.375 2.625C1.67337 2.625 1.95952 2.50647 2.1705 2.2955C2.38147 2.08452 2.5 1.79837 2.5 1.5ZM13.75 1.5C13.75 1.914 13.456 2.25 13.0938 2.25H4.65625C4.294 2.25 4 1.914 4 1.5C4 1.086 4.294 0.75 4.65625 0.75H13.0938C13.456 0.75 13.75 1.086 13.75 1.5ZM2.5 6C2.5 5.70163 2.38147 5.41548 2.1705 5.2045C1.95952 4.99353 1.67337 4.875 1.375 4.875C1.07663 4.875 0.790483 4.99353 0.579505 5.2045C0.368526 5.41548 0.25 5.70163 0.25 6C0.25 6.29837 0.368526 6.58452 0.579505 6.79549C0.790483 7.00647 1.07663 7.125 1.375 7.125C1.67337 7.125 1.95952 7.00647 2.1705 6.79549C2.38147 6.58452 2.5 6.29837 2.5 6ZM13.75 6C13.75 6.414 13.456 6.75 13.0938 6.75H4.65625C4.294 6.75 4 6.414 4 6C4 5.586 4.294 5.25 4.65625 5.25H13.0938C13.456 5.25 13.75 5.586 13.75 6ZM2.5 10.5C2.5 10.2016 2.38147 9.91548 2.1705 9.70451C1.95952 9.49353 1.67337 9.375 1.375 9.375C1.07663 9.375 0.790483 9.49353 0.579505 9.70451C0.368526 9.91548 0.25 10.2016 0.25 10.5C0.25 10.7984 0.368526 11.0845 0.579505 11.2955C0.790483 11.5065 1.07663 11.625 1.375 11.625C1.67337 11.625 1.95952 11.5065 2.1705 11.2955C2.38147 11.0845 2.5 10.7984 2.5 10.5ZM13.75 10.5C13.75 10.914 13.456 11.25 13.0938 11.25H4.65625C4.294 11.25 4 10.914 4 10.5C4 10.086 4.294 9.75 4.65625 9.75H13.0938C13.456 9.75 13.75 10.086 13.75 10.5Z" fill="#ECEDEB"/>
</svg>
