<svg width="14" height="14" viewBox="0 0 14 14" fill="none" xmlns="http://www.w3.org/2000/svg">
<path fill-rule="evenodd" clip-rule="evenodd" d="M12.2641 7.51593L13.8051 9.30593C13.9946 9.49487 14.0514 9.77936 13.9492 10.0266C13.8469 10.2738 13.6057 10.435 13.3381 10.4349H0.668138C0.400887 10.4344 0.160141 10.2733 0.0578026 10.0264C-0.0445358 9.77955 0.0116081 9.49535 0.200138 9.30593L1.71314 7.51593C1.96113 7.26799 2.10036 6.93161 2.10014 6.58093V4.86393C2.23242 2.20192 4.47962 0.140534 7.14314 0.237933C9.73802 0.361158 11.8006 2.46126 11.8771 5.05793V6.58093C11.8769 6.93161 12.0161 7.26799 12.2641 7.51593ZM7.00014 13.7639C5.77345 13.8349 4.68352 12.9873 4.45014 11.7809H9.55114C9.31731 12.9875 8.22705 13.835 7.00014 13.7639Z" fill="#C1C7D0"/>
</svg>
