<svg width="12" height="14" viewBox="0 0 12 14" fill="none" xmlns="http://www.w3.org/2000/svg">
<path fill-rule="evenodd" clip-rule="evenodd" d="M10.3629 5.134V4.363C10.3629 1.95338 8.40952 0 5.9999 0C3.59028 0 1.6369 1.95338 1.6369 4.363V5.134C0.995024 5.35623 0.559607 5.95488 0.545898 6.634V12.361C0.565712 12.8208 0.769426 13.2535 1.11128 13.5616C1.45313 13.8698 1.90447 14.0278 2.3639 14H9.6359C10.0948 14.0278 10.5457 13.8703 10.8875 13.5627C11.2293 13.2551 11.4333 12.8233 11.4539 12.364V6.637C11.4414 5.95677 11.0058 5.35661 10.3629 5.134ZM5.9999 2.182C7.20414 2.1831 8.18024 3.15876 8.1819 4.363V5H3.8179V4.363C3.81955 3.15876 4.79566 2.1831 5.9999 2.182Z" fill="#C1C7D0"/>
</svg>
