<svg width="105" height="105" viewBox="0 0 105 105" fill="none" xmlns="http://www.w3.org/2000/svg">
<path fill-rule="evenodd" clip-rule="evenodd" d="M32.6855 7.05566H72.275V17.1903H32.6855V7.05566Z" fill="#E33F65"/>
<path fill-rule="evenodd" clip-rule="evenodd" d="M26.9833 65.896V33.8435L32.6857 13.7173H72.9383L78.6408 33.8435V65.896C78.6408 66.7173 77.9709 67.3874 77.1494 67.3874H28.4748C27.6532 67.3872 26.9833 66.7173 26.9833 65.896Z" fill="#F0B16E"/>
<path fill-rule="evenodd" clip-rule="evenodd" d="M26.9833 65.896V33.8435L32.6857 13.7173L38.3882 33.8435V67.3872H28.4745C27.6532 67.3872 26.9833 66.7173 26.9833 65.896Z" fill="#CF8C48"/>
<path fill-rule="evenodd" clip-rule="evenodd" d="M62.4835 41.3335L60.853 56.9102C60.7673 57.7297 61.0943 58.4598 61.8175 59.064C62.7378 59.8326 63.662 59.9781 64.8886 59.9781C65.9554 59.9781 66.8737 59.6682 67.5972 59.064C68.3206 58.4598 68.6476 57.7297 68.5617 56.9102L66.9313 41.3335H62.4835Z" fill="#847784"/>
<path fill-rule="evenodd" clip-rule="evenodd" d="M61.5816 35.2501H63.4222V30.4778C63.4222 29.7672 63.9982 29.1911 64.7089 29.1911C65.4195 29.1911 65.9955 29.7672 65.9955 30.4778V35.2501H67.8362V30.4778C67.8362 29.7672 68.4122 29.1911 69.1229 29.1911C69.8335 29.1911 70.4095 29.7672 70.4095 30.4778V36.5365L70.3182 37.0134L68.7373 42.4948C68.5764 43.0574 68.0634 43.4241 67.5061 43.4239V43.4295H61.9123C61.2817 43.4295 60.7571 42.9757 60.6471 42.3768L59.1002 37.0134C59.0412 36.8658 59.0089 36.7049 59.0089 36.5363V30.4776C59.0089 29.767 59.5849 29.1909 60.2955 29.1909C61.0062 29.1909 61.582 29.767 61.582 30.4776V35.2501H61.5816Z" fill="#847784"/>
<path fill-rule="evenodd" clip-rule="evenodd" d="M47.0212 39.4573L45.6384 56.6017C45.4907 58.4312 46.9181 59.9785 48.7537 59.9785C49.8067 59.9785 50.5828 59.813 51.3584 58.9724C51.972 58.3073 52.2494 57.5036 52.1765 56.6017L50.7937 39.4573H47.0212Z" fill="#847784"/>
<path d="M48.9063 43.2269C51.637 43.2269 53.8508 39.9574 53.8508 35.9244C53.8508 31.8913 51.637 28.6218 48.9063 28.6218C46.1756 28.6218 43.9619 31.8913 43.9619 35.9244C43.9619 39.9574 46.1756 43.2269 48.9063 43.2269Z" fill="#847784"/>
<path fill-rule="evenodd" clip-rule="evenodd" d="M26.8887 79.0243V95.4685C32.3262 95.0488 39.1222 95.2369 43.8579 95.4263C48.2797 95.6032 52.7216 95.7808 57.7929 95.4509C62.7218 95.1304 64.5774 94.9881 68.9216 92.5046L88.1667 81.5031C90.7772 80.0109 90.2873 76.0782 87.3748 75.2846C86.4552 75.0341 85.6242 75.1655 84.7506 75.638L67.9073 85.2665C67.703 85.3898 67.5142 85.4459 67.2734 85.4436H50.6453C50.0179 85.4436 49.5092 84.9349 49.5092 84.3075C49.5092 83.68 50.0179 83.1714 50.6453 83.1714H66.8855C67.1765 82.8956 67.4191 82.5701 67.5984 82.2091C68.707 79.976 67.061 77.3178 64.5549 77.3178H51.3957V77.3153C51.2302 77.3153 51.0622 77.2792 50.903 77.2023C47.5029 75.553 44.1614 74.5658 40.9179 74.6867C37.7503 74.805 34.6297 75.9917 31.5752 78.6734C31.3684 78.8897 31.0771 79.0243 30.7544 79.0243H26.8887Z" fill="#FCD4A9"/>
<path fill-rule="evenodd" clip-rule="evenodd" d="M16.076 77.3867H28.0269C28.5462 77.3867 28.971 77.8115 28.971 78.3309V97.0005C28.971 97.5198 28.5462 97.9447 28.0269 97.9447H16.076C15.5567 97.9447 15.1318 97.5198 15.1318 97.0005V78.3309C15.1318 77.8115 15.5565 77.3867 16.076 77.3867Z" fill="#60B7FE"/>
</svg>
