<svg width="100" height="100" viewBox="0 0 100 100" fill="none" xmlns="http://www.w3.org/2000/svg">
<rect width="100" height="100" rx="50" fill="#E9F8F9"/>
<g clip-path="url(#clip0_37_4378)">
<path d="M72.6926 57.492L72.0184 55.8632L64.2648 37.1352C64.1934 36.9629 64.0565 36.8261 63.8843 36.7546L43.5106 28.3174C43.4217 28.2804 43.3262 28.262 43.2299 28.2636C43.1336 28.2652 43.0387 28.2867 42.9511 28.3267C42.8635 28.3665 42.785 28.4239 42.7204 28.4953C42.6559 28.5667 42.6067 28.6506 42.5759 28.7417L41.3124 32.4754L29.1476 68.416L29.1444 68.4272C28.8129 69.4084 29.0615 70.4737 29.7941 71.2063C30.1606 71.5728 30.6101 71.8182 31.0907 71.9302C31.5714 72.0422 32.0831 72.021 32.5736 71.8553L55.6288 64.0565L56.9056 62.7373L62.7738 61.6395L68.536 59.6904L72.2689 58.4275C72.36 58.3966 72.4438 58.3472 72.5151 58.2826C72.5864 58.2179 72.6436 58.1393 72.6832 58.0515C72.7229 57.9639 72.7442 57.869 72.7458 57.7728C72.7475 57.6765 72.7293 57.581 72.6926 57.492Z" fill="#F9D11F"/>
<path d="M72.269 58.4274L68.5361 59.6903L62.7739 61.6394L56.9057 62.7372L55.629 64.0564L32.5737 71.8552C32.0831 72.021 31.5713 72.0422 31.0907 71.9301C30.6101 71.8181 30.1606 71.5728 29.7941 71.2062C29.0615 70.4736 28.813 69.4083 29.1444 68.4272L29.1477 68.4159C29.6378 68.8396 30.23 69.128 30.8657 69.2526C31.5014 69.3773 32.1587 69.3339 32.7725 69.1266L72.0183 55.8632L72.6925 57.492C72.7292 57.5809 72.7473 57.6764 72.7457 57.7726C72.7441 57.8688 72.7228 57.9636 72.6831 58.0513C72.6434 58.1389 72.5862 58.2175 72.515 58.2822C72.4438 58.3469 72.3601 58.3963 72.269 58.4274Z" fill="#FFA402"/>
<path d="M72.269 58.4275L68.5361 59.6904C68.3438 58.8742 68.1174 58.0665 67.8572 57.2693C66.4399 52.9231 63.6589 47.6931 58.3761 42.4089C52.0663 36.103 46.0815 33.6117 41.3389 32.5006L41.3124 32.4754L42.5759 28.7417C42.6067 28.6506 42.6559 28.5667 42.7205 28.4953C42.785 28.4239 42.8635 28.3665 42.9511 28.3267C43.0387 28.2867 43.1336 28.2652 43.2299 28.2636C43.3262 28.262 43.4218 28.2804 43.5106 28.3174L63.8843 36.7546C64.0565 36.8261 64.1934 36.9629 64.2648 37.1352L72.0184 55.8632L72.6926 57.4921C72.7293 57.581 72.7475 57.6765 72.7459 57.7728C72.7443 57.869 72.723 57.9639 72.6833 58.0516C72.6437 58.1393 72.5865 58.2179 72.5152 58.2826C72.4439 58.3472 72.3601 58.3966 72.269 58.4275Z" fill="#FDEDA5"/>
<path d="M72.269 58.4274L68.5361 59.6903C68.3439 58.8741 68.1174 58.0664 67.8572 57.2692L72.0184 55.8632L72.6926 57.492C72.7293 57.5809 72.7475 57.6765 72.7459 57.7727C72.7443 57.8689 72.723 57.9638 72.6833 58.0515C72.6437 58.1392 72.5865 58.2178 72.5152 58.2825C72.444 58.3472 72.3602 58.3965 72.269 58.4274Z" fill="#FBDF63"/>
<path d="M76.9392 56.7588C75.8945 51.7788 72.9577 44.151 64.9012 36.0943C56.8434 28.0403 49.2145 25.1048 44.2332 24.06C42.7689 23.7531 41.3263 24.6533 40.9465 26.0833C40.9339 26.1317 40.9224 26.1803 40.912 26.2292C40.7575 26.9631 40.8987 27.7116 41.3091 28.3393C41.4155 28.5032 41.5388 28.6554 41.677 28.7934C42.0582 29.1746 42.5414 29.4378 43.0811 29.5506C47.3172 30.4389 53.8523 32.9832 60.9343 40.0614C68.0137 47.1423 70.5594 53.6762 71.4483 57.9104C71.559 58.443 71.8231 58.9315 72.2081 59.3158L72.2087 59.3165C72.8816 59.9893 73.8395 60.2751 74.7696 60.0795C74.8188 60.0692 74.8676 60.0575 74.9161 60.0443C75.587 59.8667 76.1605 59.4536 76.5423 58.8689C76.9526 58.2412 77.0931 57.492 76.9392 56.7588Z" fill="#F79E60"/>
<path d="M76.9393 56.7588C75.8945 51.7788 72.9577 44.151 64.9012 36.0943C56.8434 28.0403 49.2145 25.1048 44.2333 24.06C42.7689 23.7531 41.3263 24.6533 40.9465 26.0833C41.3704 25.9698 41.8151 25.958 42.2444 26.0488C47.2257 27.0937 54.8546 30.0291 62.9125 38.0831C70.969 46.1398 73.9058 53.7676 74.9505 58.7476C75.042 59.1838 75.0295 59.626 74.916 60.0443C75.5869 59.8667 76.1604 59.4536 76.5422 58.8689C76.9526 58.2412 77.0931 57.492 76.9393 56.7588Z" fill="#D77D41"/>
<path d="M51.2606 42.6234C51.2605 41.4409 50.8001 40.3293 49.9639 39.4931L49.9635 39.4927C48.2369 37.7666 45.4276 37.7666 43.7011 39.4927C42.8647 40.329 42.4041 41.4407 42.4041 42.6235C42.4041 43.806 42.8646 44.9176 43.7007 45.7538C43.7009 45.7539 43.701 45.7541 43.7011 45.7543C45.4277 47.4804 48.237 47.4804 49.9635 45.7543C50.7999 44.9179 51.2605 43.8061 51.2606 42.6234ZM47.5796 53.4132L47.5794 53.4129C45.8528 51.6868 43.0435 51.6868 41.317 53.4129C40.4805 54.2492 40.0198 55.361 40.0198 56.5437C40.0198 57.7262 40.4803 58.8377 41.3165 59.674C41.3166 59.6741 41.3168 59.6743 41.317 59.6744C43.0436 61.4005 45.8529 61.4005 47.5794 59.6744C48.4158 58.8381 48.8764 57.7263 48.8764 56.5436C48.8764 55.3611 48.4159 54.2495 47.5796 53.4132ZM62.7746 61.6401L55.6236 64.0406L55.3153 63.7323C54.7903 63.2072 54.4137 62.5735 54.2056 61.8827C54.0811 61.4672 54.0181 61.0357 54.0187 60.6019C54.0187 59.4193 54.4794 58.3075 55.3153 57.4715C56.1791 56.609 57.3134 56.1775 58.447 56.1775C59.5806 56.1775 60.7149 56.609 61.5779 57.4722C62.0347 57.9289 62.3781 58.4646 62.5968 59.0466C62.8513 59.7241 62.9362 60.4626 62.8334 61.2085L62.7746 61.6401Z" fill="#ED2061"/>
<path d="M62.7746 61.64L55.6236 64.0405L55.3153 63.7323C54.7903 63.2072 54.4138 62.5734 54.2056 61.8827L62.5969 59.0466C62.8514 59.7242 62.9363 60.4626 62.8335 61.2085L62.7746 61.64Z" fill="#C71E54"/>
<path d="M39.5939 62.0149C39.5722 61.8649 39.5026 61.726 39.3954 61.6188C39.2882 61.5116 39.1493 61.442 38.9993 61.4203C38.9438 61.4122 38.4385 61.3432 37.7936 61.4036C36.8695 61.49 36.1099 61.8068 35.5968 62.3197C35.0837 62.8327 34.7668 63.5923 34.6803 64.5163C34.6199 65.1612 34.689 65.6663 34.6971 65.7218C34.7194 65.8758 34.7911 66.0133 34.8957 66.1179C35.0002 66.2225 35.1377 66.2941 35.2918 66.3165C35.3472 66.3246 35.8525 66.3935 36.4975 66.3331C37.4216 66.2467 38.1811 65.9299 38.6942 65.417C39.2073 64.904 39.5243 64.1445 39.6107 63.2205C39.671 62.5755 39.602 62.0704 39.5939 62.0149ZM55.7877 54.3974C55.8082 54.3451 55.9906 53.869 56.0789 53.2274C56.2056 52.308 56.0702 51.4962 55.6877 50.8798C55.3051 50.2632 54.6378 49.7816 53.7577 49.4868C53.1434 49.281 52.6358 49.233 52.58 49.2282C52.429 49.2152 52.2778 49.2513 52.1491 49.3313C52.0203 49.4112 51.9208 49.5305 51.8654 49.6716C51.8448 49.7237 51.6625 50.1999 51.5741 50.8415C51.4475 51.7608 51.5828 52.5726 51.9653 53.1891C52.0754 53.3655 52.2055 53.5285 52.353 53.675C52.7391 54.0611 53.2621 54.37 53.8952 54.582C54.5095 54.7879 55.0171 54.8359 55.0729 54.8407C55.2239 54.8537 55.3751 54.8176 55.5039 54.7377C55.6327 54.6578 55.7322 54.5384 55.7877 54.3974Z" fill="#68C044"/>
<path d="M42.9786 49.4332L41.9058 47.7608C41.8051 47.6038 41.6462 47.4933 41.464 47.4535C41.2818 47.4137 41.0913 47.4479 40.9343 47.5486C40.7774 47.6493 40.6668 47.8082 40.627 47.9904C40.5872 48.1726 40.6215 48.3631 40.7221 48.5201L41.7949 50.1925C41.8229 50.2361 41.8547 50.2755 41.8899 50.3107C42.0127 50.433 42.1763 50.5058 42.3493 50.5149C42.5224 50.524 42.6928 50.4689 42.8277 50.3601C42.9627 50.2514 43.0527 50.0966 43.0806 49.9255C43.1084 49.7545 43.0721 49.5791 42.9786 49.4332ZM57.9816 47.5724L56.4726 46.2796C56.331 46.1583 56.147 46.0982 55.9611 46.1126C55.7751 46.1269 55.6025 46.2145 55.4812 46.3561C55.3599 46.4977 55.2998 46.6818 55.3141 46.8677C55.3285 47.0536 55.4161 47.2262 55.5577 47.3475L57.0667 48.6403C57.2083 48.7617 57.3923 48.8218 57.5782 48.8074C57.7642 48.7931 57.9368 48.7055 58.0581 48.5639C58.3109 48.269 58.2772 47.8238 57.9816 47.5724ZM51.7428 61.0469L51.932 59.2344C51.9474 59.051 51.8903 58.8688 51.7729 58.7271C51.6555 58.5853 51.4872 58.4952 51.3041 58.4761C51.121 58.457 50.9378 58.5104 50.7937 58.6249C50.6496 58.7394 50.5561 58.9059 50.5333 59.0885L50.3441 60.9011C50.3331 61.0052 50.3456 61.1105 50.3807 61.2093C50.4157 61.308 50.4724 61.3976 50.5466 61.4715C50.6405 61.5654 50.7592 61.6307 50.8887 61.66C51.0183 61.6892 51.1535 61.6811 51.2787 61.6367C51.4038 61.5923 51.5139 61.5133 51.596 61.4089C51.6782 61.3046 51.7291 61.179 51.7428 61.0469Z" fill="#FDEDA5"/>
</g>
<defs>
<clipPath id="clip0_37_4378">
<rect width="48" height="48" fill="white" transform="translate(29 24)"/>
</clipPath>
</defs>
</svg>
