<svg width="47" height="38" viewBox="0 0 47 38" fill="none" xmlns="http://www.w3.org/2000/svg">
<path d="M35.4993 29.5022C35.4738 28.6322 35.4468 27.9377 35.3426 27.5754L35.1198 26.8029L34.4958 27.3084C34.2783 27.4854 34.1051 27.8034 33.9333 28.1184C33.6708 28.6022 33.3738 29.1497 32.8518 29.2607C32.805 29.2704 32.7572 29.2755 32.7093 29.2757C32.4393 29.2757 32.2653 29.0642 31.9803 28.5887C31.7133 28.1424 31.4118 27.6362 30.7781 27.6362C30.6716 27.6362 30.5606 27.6512 30.4391 27.6819C30.0646 27.7777 29.6796 27.8266 29.2931 27.8274C27.8621 27.8274 26.7948 27.1532 26.2856 26.7504L25.9271 26.4684L25.5933 26.7789C24.0611 28.2009 21.6686 28.5324 19.9316 28.5602L19.6308 28.5647L19.4801 28.8249C18.7616 30.0602 16.8176 30.5919 15.2576 31.0194C14.4926 31.2294 13.7688 31.4282 13.2708 31.6817C12.4676 32.0912 12.8036 33.1644 13.1598 34.3007L13.3241 34.8227L35.5526 30.8979L35.5331 30.4314C35.5188 30.1202 35.5083 29.8089 35.4993 29.5022ZM45.0798 23.2847C45.0093 23.1287 44.8113 22.8677 44.2938 22.8677C43.9391 22.8677 43.4321 22.9869 42.9723 23.1782L42.8913 23.2119L42.7451 23.3469C42.2591 23.7534 42.4751 24.5079 42.8621 25.6127C43.1156 26.3349 43.4028 27.1539 43.1718 27.5702C43.0878 27.7224 42.9348 27.8222 42.7038 27.8747C42.5876 27.9009 42.4788 27.9137 42.3798 27.9137C42.2201 27.9207 42.0627 27.8731 41.9336 27.7787C41.5098 27.4532 41.4761 26.5937 41.4431 25.7627C41.4033 24.7517 41.3456 24.2477 40.9766 23.9777L40.7703 23.8907H40.6556C40.5806 23.8907 40.4981 23.9027 40.4193 23.9252C39.4083 24.1974 39.6011 24.9302 39.7556 25.5182C39.9506 26.2659 39.9588 26.6529 39.4856 26.9702C39.2823 27.1067 39.0956 27.1757 38.9313 27.1757C38.6403 27.1757 38.3996 26.9619 38.1866 26.7729C37.9391 26.5539 37.6841 26.3274 37.3331 26.3274C37.1261 26.3274 36.9603 26.4092 36.8531 26.4707L36.6911 26.5652L36.6236 26.7399C36.4946 27.0744 36.6131 27.5064 37.2911 29.1744C37.4141 29.4744 37.5371 29.7834 37.6556 30.0932L37.8041 30.4794L38.2151 30.4314C38.9298 30.3474 45.2231 29.5862 45.8838 28.5189C46.4621 27.3602 45.3033 23.7759 45.0798 23.2847ZM11.2968 33.5282C11.2571 32.7609 11.2218 32.1954 11.1236 31.9044L10.9983 31.5324L10.6068 31.5422C10.3091 31.5489 9.78633 31.7147 9.39933 31.8527C8.90733 32.0267 8.34933 32.2239 7.88133 32.2239C7.77933 32.2239 7.68333 32.2149 7.59633 32.1962C7.22133 32.1144 7.14108 31.8302 7.09308 31.1822C7.06083 30.7389 7.01958 30.1877 6.51858 30.0572C6.4244 30.0319 6.32733 30.0191 6.22983 30.0189C5.99733 30.0189 5.79108 30.0864 5.52183 30.1809C5.32908 30.2484 5.08983 30.3332 4.82733 30.3557L4.68783 30.3744C4.54308 30.3744 4.04058 30.4029 3.66933 30.7719C3.40158 31.0374 3.26958 31.4117 3.27783 31.8849C3.31758 34.5197 3.88308 36.0039 4.95858 36.2964C5.18808 36.3587 5.47533 36.3894 5.83683 36.3894C7.30383 36.3894 9.77208 35.8644 10.9998 35.5539L11.4491 35.4399L11.3988 34.9802C11.351 34.4972 11.317 34.013 11.2968 33.5282Z" fill="#FFA963"/>
<path d="M12.439 37.3524C12.226 37.3524 12.0333 37.2872 11.866 37.1604C11.191 36.6459 11.0665 35.2224 10.9825 33.5529C10.9488 32.8794 10.9015 31.9682 10.756 31.8752C10.707 31.8627 10.6566 31.8569 10.606 31.8579C10.3285 31.8579 9.93104 31.9989 9.51029 32.1474C8.98904 32.3319 8.40403 32.5389 7.88203 32.5389C7.75828 32.5389 7.63979 32.5269 7.53104 32.5037C6.86579 32.3597 6.81778 31.7207 6.77878 31.2077C6.73379 30.6002 6.66104 30.4187 6.43829 30.3602C6.37115 30.3429 6.30209 30.3344 6.23279 30.3347C6.03404 30.3347 5.83003 30.4067 5.63278 30.4764C5.35904 30.5739 5.05528 30.6819 4.66753 30.6819C4.31278 30.6819 3.94304 30.5897 3.53504 30.3999C3.17129 30.2312 2.92604 29.9582 2.80904 29.5899C2.52254 28.6907 3.09328 27.4689 3.27478 27.1164L3.46303 26.7482L3.86803 26.8412C4.01428 26.8749 4.09303 26.8937 4.18003 26.9042C4.27978 26.9154 4.37278 26.9214 4.46128 26.9214C5.25478 26.9214 5.51878 26.4752 5.75278 26.0814C5.94253 25.7627 6.12029 25.4619 6.51554 25.4619C7.21529 25.5332 7.25129 26.1017 7.27979 26.5577C7.31504 27.1059 7.37204 27.5117 7.79129 27.7427C7.89573 27.8055 8.01448 27.8406 8.13629 27.8447C8.27654 27.8447 8.42579 27.7824 8.59379 27.6534L8.91928 27.4029L9.24329 27.6549C9.78179 28.0704 11.311 29.0372 13.8768 29.0372C14.731 29.0372 15.6273 28.9262 16.5408 28.7072C16.8805 28.6254 17.1933 28.5422 17.488 28.4567L17.5638 28.4349L17.767 28.4484C17.944 28.4739 19.1133 27.0572 19.7583 27.0827L20.1955 28.5977L19.4208 29.4452C18.493 30.4592 16.753 30.9362 15.355 31.3202C14.596 31.5279 13.8843 31.7229 13.4148 31.9622C12.9325 32.2074 13.0383 32.8584 13.4373 34.1349C13.732 35.0724 14.0365 36.0437 13.657 36.6999C13.4755 37.0149 13.1643 37.2174 12.7053 37.3209C12.6179 37.3408 12.5286 37.3519 12.439 37.3524Z" fill="#F9C900"/>
<path d="M45.0776 23.2825C45.0101 23.1325 44.8151 22.87 44.2901 22.87C44.0426 22.87 43.7276 22.93 43.3976 23.0275C43.7801 24.7525 43.9226 26.41 43.2476 27.025C43.2701 27.2425 43.2476 27.43 43.1726 27.5725C43.0901 27.7225 42.9326 27.82 42.7076 27.8725C42.5876 27.9025 42.4751 27.9175 42.3776 27.9175C42.2178 27.9246 42.0607 27.874 41.9351 27.775C41.8504 27.7112 41.7812 27.6292 41.7326 27.535C40.6901 27.79 39.0701 28.1725 37.0676 28.615C37.1351 28.7875 37.2101 28.975 37.2926 29.1775C37.4126 29.4775 37.5401 29.785 37.6526 30.0925L37.8026 30.4825L38.2151 30.43C38.9276 30.3475 45.2201 29.5825 45.8801 28.5175C46.4651 27.3625 45.3026 23.7775 45.0776 23.2825ZM35.5001 29.5C35.4926 29.32 35.4851 29.14 35.4851 28.975C29.2151 30.3625 20.2226 32.26 13.2701 33.5575C13.3151 33.7375 13.3676 33.925 13.4351 34.135C13.5026 34.345 13.5701 34.5625 13.6301 34.7725L35.5526 30.895L35.5301 30.43C35.5226 30.1225 35.5076 29.8075 35.5001 29.5ZM3.75256 35.02C4.03006 35.725 4.43506 36.145 4.96006 36.295C5.18506 36.3625 5.47756 36.3925 5.83756 36.3925C7.30756 36.3925 9.77506 35.8675 10.9976 35.5525L11.1551 35.515C11.0801 35.0575 11.0351 34.5325 11.0051 33.97C7.69006 34.5625 5.05006 34.9675 3.75256 35.02Z" fill="#F49853"/>
<path d="M36.9497 34.2055C36.6752 34.2055 36.439 34.1305 36.2275 33.9737C35.365 33.3377 35.245 31.579 35.1835 29.5165C35.158 28.594 35.131 27.64 34.9435 27.4675C34.681 27.4697 34.516 27.7052 34.213 28.264C33.9167 28.81 33.5807 29.4272 32.9147 29.569C32.8525 29.5825 32.7865 29.5907 32.7212 29.5907C32.2135 29.5907 31.9577 29.1632 31.7102 28.7507C31.429 28.282 31.198 27.9512 30.7825 27.9512C30.6921 27.9524 30.6022 27.9645 30.5147 27.9872C30.116 28.0891 29.7061 28.141 29.2945 28.1417C28.1777 28.1417 27.274 27.7502 26.713 27.4217L25.12 26.3162L26.9792 26.4295C28.5362 26.422 29.8885 26.1122 30.997 25.5077L31.1207 25.4402L31.4537 25.4455C32.6477 25.4455 36.6887 25.2362 38.4737 22.5505L38.5847 22.387L38.7737 22.333C39.112 22.2385 39.3445 22.1005 39.4847 21.9092C39.7975 21.4847 39.6565 20.8457 39.5432 20.3335C39.5115 20.1946 39.484 20.0548 39.4607 19.9142L39.2927 18.7712L40.2707 19.3855C40.399 19.4657 40.5745 19.6067 40.7027 19.7132C41.0762 20.02 41.539 20.401 42.121 20.401C42.511 20.401 42.9362 20.2262 43.3855 19.8805C43.4132 19.8505 43.438 19.8272 43.4672 19.8032L44.0867 19.2887L44.3162 20.0627C44.6642 21.2372 44.2562 22.3975 43.1372 23.4167L43.0352 23.4977L42.9452 23.5907C42.6182 23.8675 42.838 24.5905 43.159 25.507C43.5032 26.4895 43.7252 27.2222 43.4477 27.7232C43.3157 27.9595 43.0952 28.1095 42.7727 28.1815C42.6347 28.213 42.5027 28.2295 42.3805 28.2295C42.0055 28.2295 41.809 28.0795 41.7437 28.03C41.2015 27.613 41.1625 26.6387 41.1287 25.7785C41.1017 25.1155 41.0747 24.4382 40.8265 24.256C40.7758 24.2214 40.7153 24.204 40.654 24.2065C40.602 24.2072 40.5503 24.2147 40.5002 24.229C39.8575 24.403 39.8702 24.7142 40.0592 25.4372C40.2107 26.017 40.399 26.7355 39.661 27.232C39.3962 27.4097 39.1637 27.493 38.9275 27.493C38.524 27.493 38.2615 27.2597 37.9825 27.013C37.7935 26.845 37.5617 26.6402 37.333 26.6402C37.2355 26.6402 37.1305 26.674 37.012 26.743C36.7127 26.917 37.1732 28.0495 37.5797 29.0485C38.2082 30.5927 38.917 32.3297 38.4032 33.3752C38.2187 33.7502 37.8895 34.0052 37.4237 34.1357C37.2696 34.1801 37.1102 34.2036 36.9497 34.2055Z" fill="#F9C900"/>
<path d="M32.0515 24.7787C32.2007 24.649 32.3477 24.5147 32.4865 24.3655L32.6215 24.2192L32.8187 24.1982C33.211 24.1555 33.5087 24.0235 33.7292 23.7955C34.1935 23.3125 34.2017 22.54 34.1845 22.231L34.1695 22.003L34.3262 21.8357C34.5287 21.6205 34.642 21.3167 34.7417 21.0257C34.8767 20.6282 34.9532 20.4407 35.1257 20.3132L35.1482 20.2967L35.233 20.248L35.35 20.2157L35.4962 20.1992C35.9965 20.1992 36.1922 20.6462 36.3992 21.1195C36.715 21.844 37.0247 22.4012 37.8932 22.4395L39.0295 22.4905L38.2637 23.3305C36.6362 25.117 33.9205 25.588 32.446 25.711L30.8282 25.8445L32.0515 24.7787Z" fill="#A02E14"/>
<path d="M26.9178 26.7317C25.0653 26.7317 23.3906 26.3342 22.5558 26.0972L21.8823 25.9059L22.2468 25.3074C22.4456 24.9827 22.3436 24.5462 22.2536 24.1614C22.1238 23.6109 22.0646 23.3597 22.1913 23.1227L22.3563 22.8137L22.7043 22.8422C22.8971 22.8572 23.0703 22.9547 23.4618 23.2209C23.7828 23.4384 24.2658 23.7662 24.7496 23.7662C24.8418 23.7662 24.9333 23.7542 25.0211 23.7309L25.2476 23.6687L25.4471 23.7947C25.6421 23.9199 26.1626 24.2094 26.7521 24.2094C26.8796 24.2094 27.0056 24.1952 27.1241 24.1674C27.6491 24.0474 28.0841 23.6619 28.4201 23.0229C28.7201 22.4492 28.9953 22.1762 29.3111 22.1387H29.3133C29.7558 22.1387 30.0461 22.4507 30.4826 22.9584C30.8966 23.4384 31.3638 23.9799 31.9863 24.1532L32.9591 24.4232L32.1866 25.0734C31.8656 25.3434 31.5633 25.5579 31.2611 25.7289C30.0783 26.3942 28.6173 26.7317 26.9178 26.7317Z" fill="#F40B1C"/>
<path d="M32.5645 24.5349C32.4535 24.5349 32.3395 24.5297 32.218 24.5162C31.333 24.4262 30.73 23.7279 30.2455 23.1662C29.956 22.8294 29.6297 22.4507 29.3777 22.4507C29.1715 22.4732 28.9375 22.7154 28.699 23.1677C28.3202 23.8914 27.8162 24.3302 27.202 24.4727C27.0595 24.5064 26.9087 24.5229 26.755 24.5229C26.4235 24.5229 26.0762 24.4449 25.7215 24.2919L24.964 23.9642L25.5745 23.4092C25.6267 23.3625 25.6767 23.3134 25.7245 23.2622C26.0342 22.9254 26.1572 22.5782 26.0897 22.2294C25.984 21.6759 25.4462 21.2034 25.0142 20.9057L24.0002 20.2052L25.204 19.9472C27.2957 19.4972 29.5345 19.0089 31.6975 18.5252L32.8007 18.2784L32.2885 19.2864C32.0848 19.7052 32.0161 20.177 32.092 20.6364C32.2307 21.4809 32.7632 22.0802 33.418 22.1274C33.5618 22.1378 33.7064 22.1267 33.847 22.0944L34.5467 21.9399L34.4927 22.6539C34.4507 23.2322 34.2677 23.6904 33.9527 24.0167C33.619 24.3609 33.1517 24.5349 32.5645 24.5349Z" fill="#599306"/>
<path d="M19.267 28.8692L17.053 28.5902L19.18 27.8507C20.971 27.0579 21.2095 26.2959 21.2387 26.1512L21.301 25.8527L21.589 25.7544C21.6563 25.7322 21.7224 25.7064 21.787 25.6772L21.982 25.5857L22.1852 25.6554C22.324 25.7034 23.5802 26.1279 25.2602 26.3282L26.5277 26.4789L25.5287 27.2739C23.8675 28.5947 21.4172 28.8722 19.6532 28.8722L19.267 28.8692Z" fill="#A02E14"/>
<path d="M13.9128 29.3463C11.353 29.3463 9.72702 28.3863 9.14652 27.9738L8.67627 27.6393L9.12852 27.1023C9.43602 26.737 9.65877 26.491 9.94002 26.4048L10.03 26.3823L10.1275 26.3755C10.4418 26.3755 10.7103 26.566 11.0215 26.788C11.4213 27.0715 11.8713 27.391 12.4068 27.391C12.6715 27.391 12.9393 27.316 13.2258 27.1623C13.4673 27.031 13.6698 26.8278 13.8258 26.5608L14.1168 26.0583L14.5923 26.3928C14.8938 26.6058 15.3745 26.8585 15.9483 26.8585C16.2505 26.8585 16.5505 26.7858 16.8423 26.6425C17.5398 26.2998 17.557 25.8288 17.5075 25.249L17.5038 25.204L17.8285 24.6093L18.4495 24.8268L18.5575 24.994C18.8275 25.423 19.1628 25.954 20.2855 25.954C20.4408 25.954 20.6095 25.9443 20.791 25.9225L21.9933 25.7778L21.2875 26.7618C20.8398 27.3858 19.666 28.2835 16.615 29.014C15.6925 29.2345 14.7828 29.3463 13.9128 29.3463Z" fill="#F40B1C"/>
<path d="M15.9452 27.1712C15.0977 27.1712 14.4587 26.7084 14.224 26.5097L13.972 26.2952L14.0507 25.9742C14.242 25.0307 13.921 23.8067 13.5047 23.0889L13.1312 22.4439L13.861 22.2992C16.7811 21.717 19.6977 21.117 22.6105 20.4992L24.3685 20.1264L24.5597 20.2614C25.1845 20.5937 26.2262 21.2702 26.3987 22.1694C26.4857 22.6232 26.3372 23.0619 25.9562 23.4759C25.5782 23.8869 25.18 24.0864 24.739 24.0864C24.2215 24.0864 23.7557 23.7999 23.284 23.4819C23.092 23.3507 22.801 23.1527 22.6517 23.1527C22.4147 23.3304 22.438 23.5712 22.5587 24.0879C22.6667 24.5484 22.789 25.0704 22.4965 25.5084C22.2632 25.8602 21.799 26.0897 21.0767 26.2104C20.7812 26.2592 20.5082 26.2847 20.2637 26.2847C18.9985 26.2847 18.5785 25.6187 18.301 25.1777C18.1112 24.8754 18.0385 24.8027 17.926 24.8027C17.869 24.8057 17.8412 24.8177 17.836 24.8252C17.791 24.8762 17.8082 25.0742 17.821 25.2182C17.863 25.7132 17.9275 26.4609 16.981 26.9259C16.6592 27.0862 16.3047 27.1701 15.9452 27.1712ZM37.978 22.7649C36.7735 22.7649 36.409 21.9294 36.115 21.2582C35.89 20.7422 35.7527 20.5127 35.53 20.5127C35.4811 20.5133 35.4325 20.5198 35.3852 20.5322C35.2405 20.5689 35.1505 20.8007 35.0402 21.1247C34.8505 21.6834 34.5902 22.4492 33.5627 22.4492C33.5087 22.4492 33.4532 22.4469 33.394 22.4417C32.467 22.3742 31.9165 21.5117 31.7815 20.6874C31.6345 19.7814 31.939 18.6759 32.9537 18.2522C38.059 17.0912 41.2562 16.3029 42.481 15.9032L42.7765 15.8057L43.0067 16.0172C43.345 16.3284 44.4482 17.4377 44.4137 18.6369C44.3957 19.2129 44.1145 19.7154 43.5775 20.1294C43.0705 20.5209 42.5935 20.7114 42.1195 20.7114C41.4197 20.7114 40.9315 20.3094 40.5017 19.9547C40.2655 19.7619 40.0247 19.5639 39.8695 19.5639C39.781 19.5789 39.703 19.5977 39.8507 20.2652C39.9782 20.8404 40.1357 21.5567 39.7382 22.0967C39.4592 22.4762 38.962 22.6914 38.2172 22.7537C38.1347 22.7612 38.0545 22.7649 37.978 22.7649Z" fill="#77A505"/>
<path d="M8.13406 28.1544C7.96007 28.1522 7.78959 28.1052 7.63906 28.0179C7.03681 27.6872 6.99781 27.0729 6.96631 26.5779C6.92506 25.9232 6.83281 25.8092 6.55606 25.7792C6.32506 25.7799 6.21856 25.9149 6.03481 26.2239C5.78131 26.6514 5.43481 27.2364 4.46581 27.2364C4.36831 27.2364 4.26181 27.2304 4.14556 27.2177C3.43381 27.1359 2.90956 26.8592 2.58556 26.3942C2.13481 25.7447 2.21431 24.9167 2.26906 24.5919L2.34256 24.1644L2.77606 24.1494C4.14181 24.1007 7.60606 23.5314 13.0706 22.4559L13.3901 22.3937L13.5911 22.6487C13.9811 23.1399 14.6328 24.6804 14.3711 26.0102C14.2421 26.6627 13.8971 27.1562 13.3736 27.4389C13.0421 27.6189 12.7233 27.7067 12.4008 27.7067C11.7716 27.7067 11.2968 27.3692 10.8776 27.0722C10.6136 26.8847 10.3421 26.6897 10.1351 26.6897C10.1002 26.6897 10.0656 26.695 10.0323 26.7054C9.81931 26.7714 9.59131 27.0429 9.37081 27.3054C8.95231 27.8019 8.61781 28.1544 8.13331 28.1544H8.13406Z" fill="#599306"/>
<path d="M2.95083 16.8227C6.76308 12.1419 15.8441 1.23995 17.6756 0.667699C17.7881 0.633199 17.9171 0.616699 18.0708 0.616699C21.0663 0.616699 38.2383 7.71245 41.4933 10.0067L42.1623 10.5504L41.3238 10.9577C39.5351 11.4324 30.1586 13.9007 21.1976 15.8904C12.3131 17.8629 3.48633 19.4387 1.80783 19.7349L0.928833 19.5369C0.928833 19.5369 2.03583 17.9469 2.95083 16.8227Z" fill="#FCC683"/>
<path d="M42.16 10.5474L41.32 10.9599C39.535 11.4324 30.16 13.8999 21.1975 15.8874C12.31 17.8599 3.49 19.4424 1.81 19.7349L0.932495 19.5399C0.932495 19.5399 1.4425 18.7974 2.0575 17.9724C5.785 17.2674 10.9 16.2624 16.03 15.1224C24.67 13.2024 33.7 10.8399 35.935 10.2474C36.085 10.2099 36.22 10.1574 36.355 10.0899L36.9925 9.78243L36.4075 9.30993C36.3475 9.26493 36.3025 9.22743 36.2425 9.18243C33.6325 7.40493 23.335 2.98743 17.185 0.932432C17.38 0.797432 17.545 0.707432 17.6725 0.669932C17.785 0.632432 17.92 0.617432 18.07 0.617432C21.0625 0.617432 38.2375 7.71243 41.4925 10.0074L42.16 10.5474Z" fill="#F7BE7F"/>
<path d="M2.76627 24.5372C2.62902 24.5372 2.50527 24.5244 2.38977 24.4989L2.28852 24.4689C1.70802 24.1269 1.26252 23.2742 1.01277 22.0974C0.849273 21.3287 0.800523 20.5689 0.877023 19.9584L0.929523 19.5369L1.35702 19.4694C1.42977 19.4574 11.122 17.8044 21.13 15.5829C28.8378 13.8722 36.7075 11.8442 39.9978 10.9809C40.9255 10.7379 42.1623 10.5504 42.1623 10.5504L42.2695 10.8054C43.3225 12.9129 44.242 15.1817 43.069 16.0097C42.6078 16.3352 41.9868 16.4717 41.44 16.5917C41.2773 16.6269 41.1235 16.6607 40.9863 16.6974C39.5845 17.0724 38.1858 17.4039 36.8725 17.7114C32.9485 18.6332 29.0673 19.4664 25.4575 20.2307C22.4883 20.8607 19.393 21.4982 16.2573 22.1259C13.7367 22.6339 11.2121 23.1219 8.68377 23.5899L8.33877 23.6537C6.80727 23.9357 5.23902 24.2252 3.68127 24.4284C3.60927 24.4374 3.53202 24.4509 3.45327 24.4637C3.24402 24.4982 3.00777 24.5372 2.76627 24.5372Z" fill="#FFA963"/>
<path d="M43.0675 16.0075C42.61 16.3375 41.9875 16.4725 41.44 16.5925C41.275 16.63 41.125 16.66 40.99 16.6975C39.5875 17.0725 38.185 17.4025 36.8725 17.71C32.95 18.6325 29.065 19.465 25.4575 20.23C22.4875 20.86 19.39 21.4975 16.255 22.1275C13.27 22.7275 10.8625 23.1925 8.6875 23.59L8.3425 23.65C6.805 23.935 5.2375 24.2275 3.685 24.43C3.61 24.4375 3.535 24.4525 3.4525 24.46C3.2425 24.4975 3.01 24.535 2.77 24.535C2.6275 24.535 2.5075 24.5275 2.3875 24.4975L2.29 24.4675C2.0125 24.31 1.765 24.0325 1.5625 23.6575L1.7275 23.635C1.81 23.62 1.885 23.605 1.96 23.5975C3.5125 23.395 5.0875 23.1025 6.6175 22.825L6.9625 22.7575C9.1375 22.36 11.545 21.895 14.53 21.295C17.6725 20.665 20.7625 20.0275 23.7325 19.3975C27.34 18.64 31.225 17.8 35.1475 16.885C36.46 16.5775 37.8625 16.24 39.265 15.865C39.4 15.8275 39.5575 15.7975 39.715 15.76C40.2625 15.64 40.885 15.505 41.3425 15.1825C42.3775 14.455 41.7925 12.625 40.93 10.765C41.5825 10.6375 42.16 10.5475 42.16 10.5475L42.2725 10.8025C43.3225 12.91 44.245 15.1825 43.0675 16.0075Z" fill="#F49853"/>
</svg>
