<svg width="100" height="100" viewBox="0 0 100 100" fill="none" xmlns="http://www.w3.org/2000/svg">
<rect width="100" height="100" rx="50" fill="#E9F8F9"/>
<path d="M61.9992 60.5022C61.9737 59.6322 61.9467 58.9377 61.8425 58.5754L61.6197 57.8029L60.9957 58.3084C60.7782 58.4854 60.605 58.8034 60.4332 59.1184C60.1707 59.6022 59.8737 60.1497 59.3517 60.2607C59.3049 60.2704 59.2571 60.2755 59.2092 60.2757C58.9392 60.2757 58.7652 60.0642 58.4802 59.5887C58.2132 59.1424 57.9117 58.6362 57.278 58.6362C57.1715 58.6362 57.0605 58.6512 56.939 58.6819C56.5645 58.7777 56.1795 58.8266 55.793 58.8274C54.362 58.8274 53.2947 58.1532 52.7855 57.7504L52.427 57.4684L52.0932 57.7789C50.561 59.2009 48.1685 59.5324 46.4315 59.5602L46.1307 59.5647L45.98 59.8249C45.2615 61.0602 43.3175 61.5919 41.7575 62.0194C40.9925 62.2294 40.2687 62.4282 39.7707 62.6817C38.9675 63.0912 39.3035 64.1644 39.6597 65.3007L39.824 65.8227L62.0525 61.8979L62.033 61.4314C62.0187 61.1202 62.0082 60.8089 61.9992 60.5022ZM71.5797 54.2847C71.5092 54.1287 71.3112 53.8677 70.7937 53.8677C70.439 53.8677 69.932 53.9869 69.4722 54.1782L69.3912 54.2119L69.245 54.3469C68.759 54.7534 68.975 55.5079 69.362 56.6127C69.6155 57.3349 69.9027 58.1539 69.6717 58.5702C69.5877 58.7224 69.4347 58.8222 69.2037 58.8747C69.0875 58.9009 68.9787 58.9137 68.8797 58.9137C68.72 58.9207 68.5626 58.8731 68.4335 58.7787C68.0097 58.4532 67.976 57.5937 67.943 56.7627C67.9032 55.7517 67.8455 55.2477 67.4765 54.9777L67.2702 54.8907H67.1555C67.0805 54.8907 66.998 54.9027 66.9192 54.9252C65.9082 55.1974 66.101 55.9302 66.2555 56.5182C66.4505 57.2659 66.4587 57.6529 65.9855 57.9702C65.7822 58.1067 65.5955 58.1757 65.4312 58.1757C65.1402 58.1757 64.8995 57.9619 64.6865 57.7729C64.439 57.5539 64.184 57.3274 63.833 57.3274C63.626 57.3274 63.4602 57.4092 63.353 57.4707L63.191 57.5652L63.1235 57.7399C62.9945 58.0744 63.113 58.5064 63.791 60.1744C63.914 60.4744 64.037 60.7834 64.1555 61.0932L64.304 61.4794L64.715 61.4314C65.4297 61.3474 71.723 60.5862 72.3837 59.5189C72.962 58.3602 71.8032 54.7759 71.5797 54.2847ZM37.7967 64.5282C37.757 63.7609 37.7217 63.1954 37.6235 62.9044L37.4982 62.5324L37.1067 62.5422C36.809 62.5489 36.2862 62.7147 35.8992 62.8527C35.4072 63.0267 34.8492 63.2239 34.3812 63.2239C34.2792 63.2239 34.1832 63.2149 34.0962 63.1962C33.7212 63.1144 33.641 62.8302 33.593 62.1822C33.5607 61.7389 33.5195 61.1877 33.0185 61.0572C32.9243 61.0319 32.8272 61.0191 32.7297 61.0189C32.4972 61.0189 32.291 61.0864 32.0217 61.1809C31.829 61.2484 31.5897 61.3332 31.3272 61.3557L31.1877 61.3744C31.043 61.3744 30.5405 61.4029 30.1692 61.7719C29.9015 62.0374 29.7695 62.4117 29.7777 62.8849C29.8175 65.5197 30.383 67.0039 31.4585 67.2964C31.688 67.3587 31.9752 67.3894 32.3367 67.3894C33.8037 67.3894 36.272 66.8644 37.4997 66.5539L37.949 66.4399L37.8987 65.9802C37.8509 65.4972 37.8169 65.013 37.7967 64.5282Z" fill="#FFA963"/>
<path d="M38.939 68.3524C38.726 68.3524 38.5332 68.2872 38.366 68.1604C37.691 67.6459 37.5665 66.2224 37.4825 64.5529C37.4487 63.8794 37.4015 62.9682 37.256 62.8752C37.207 62.8627 37.1565 62.8569 37.106 62.8579C36.8285 62.8579 36.431 62.9989 36.0102 63.1474C35.489 63.3319 34.904 63.5389 34.382 63.5389C34.2582 63.5389 34.1397 63.5269 34.031 63.5037C33.3657 63.3597 33.3177 62.7207 33.2787 62.2077C33.2337 61.6002 33.161 61.4187 32.9382 61.3602C32.8711 61.3429 32.802 61.3344 32.7327 61.3347C32.534 61.3347 32.33 61.4067 32.1327 61.4764C31.859 61.5739 31.5552 61.6819 31.1675 61.6819C30.8127 61.6819 30.443 61.5897 30.035 61.3999C29.6712 61.2312 29.426 60.9582 29.309 60.5899C29.0225 59.6907 29.5932 58.4689 29.7747 58.1164L29.963 57.7482L30.368 57.8412C30.5142 57.8749 30.593 57.8937 30.68 57.9042C30.7797 57.9154 30.8727 57.9214 30.9612 57.9214C31.7547 57.9214 32.0187 57.4752 32.2527 57.0814C32.4425 56.7627 32.6202 56.4619 33.0155 56.4619C33.7152 56.5332 33.7512 57.1017 33.7797 57.5577C33.815 58.1059 33.872 58.5117 34.2912 58.7427C34.3957 58.8055 34.5144 58.8406 34.6362 58.8447C34.7765 58.8447 34.9257 58.7824 35.0937 58.6534L35.4192 58.4029L35.7432 58.6549C36.2817 59.0704 37.811 60.0372 40.3767 60.0372C41.231 60.0372 42.1272 59.9262 43.0407 59.7072C43.3805 59.6254 43.6932 59.5422 43.988 59.4567L44.0637 59.4349L44.267 59.4484C44.444 59.4739 45.6132 58.0572 46.2582 58.0827L46.6955 59.5977L45.9207 60.4452C44.993 61.4592 43.253 61.9362 41.855 62.3202C41.096 62.5279 40.3842 62.7229 39.9147 62.9622C39.4325 63.2074 39.5382 63.8584 39.9372 65.1349C40.232 66.0724 40.5365 67.0437 40.157 67.6999C39.9755 68.0149 39.6642 68.2174 39.2052 68.3209C39.1179 68.3408 39.0286 68.3519 38.939 68.3524Z" fill="#F9C900"/>
<path d="M71.5775 54.2825C71.51 54.1325 71.315 53.87 70.79 53.87C70.5425 53.87 70.2275 53.93 69.8975 54.0275C70.28 55.7525 70.4225 57.41 69.7475 58.025C69.77 58.2425 69.7475 58.43 69.6725 58.5725C69.59 58.7225 69.4325 58.82 69.2075 58.8725C69.0875 58.9025 68.975 58.9175 68.8775 58.9175C68.7177 58.9246 68.5606 58.874 68.435 58.775C68.3503 58.7112 68.2811 58.6292 68.2325 58.535C67.19 58.79 65.57 59.1725 63.5675 59.615C63.635 59.7875 63.71 59.975 63.7925 60.1775C63.9125 60.4775 64.04 60.785 64.1525 61.0925L64.3025 61.4825L64.715 61.43C65.4275 61.3475 71.72 60.5825 72.38 59.5175C72.965 58.3625 71.8025 54.7775 71.5775 54.2825ZM62 60.5C61.9925 60.32 61.985 60.14 61.985 59.975C55.715 61.3625 46.7225 63.26 39.77 64.5575C39.815 64.7375 39.8675 64.925 39.935 65.135C40.0025 65.345 40.07 65.5625 40.13 65.7725L62.0525 61.895L62.03 61.43C62.0225 61.1225 62.0075 60.8075 62 60.5ZM30.2525 66.02C30.53 66.725 30.935 67.145 31.46 67.295C31.685 67.3625 31.9775 67.3925 32.3375 67.3925C33.8075 67.3925 36.275 66.8675 37.4975 66.5525L37.655 66.515C37.58 66.0575 37.535 65.5325 37.505 64.97C34.19 65.5625 31.55 65.9675 30.2525 66.02Z" fill="#F49853"/>
<path d="M63.4497 65.2055C63.1752 65.2055 62.939 65.1305 62.7275 64.9737C61.865 64.3377 61.745 62.579 61.6835 60.5165C61.658 59.594 61.631 58.64 61.4435 58.4675C61.181 58.4697 61.016 58.7052 60.713 59.264C60.4167 59.81 60.0807 60.4272 59.4147 60.569C59.3525 60.5825 59.2865 60.5907 59.2212 60.5907C58.7135 60.5907 58.4577 60.1632 58.2102 59.7507C57.929 59.282 57.698 58.9512 57.2825 58.9512C57.1921 58.9524 57.1022 58.9645 57.0147 58.9872C56.616 59.0891 56.2061 59.141 55.7945 59.1417C54.6777 59.1417 53.774 58.7502 53.213 58.4217L51.62 57.3162L53.4792 57.4295C55.0362 57.422 56.3885 57.1122 57.497 56.5077L57.6207 56.4402L57.9537 56.4455C59.1477 56.4455 63.1887 56.2362 64.9737 53.5505L65.0847 53.387L65.2737 53.333C65.612 53.2385 65.8445 53.1005 65.9847 52.9092C66.2975 52.4847 66.1565 51.8457 66.0432 51.3335C66.0115 51.1946 65.984 51.0548 65.9607 50.9142L65.7927 49.7712L66.7707 50.3855C66.899 50.4657 67.0745 50.6067 67.2027 50.7132C67.5762 51.02 68.039 51.401 68.621 51.401C69.011 51.401 69.4362 51.2262 69.8855 50.8805C69.9132 50.8505 69.938 50.8272 69.9672 50.8032L70.5867 50.2887L70.8162 51.0627C71.1642 52.2372 70.7562 53.3975 69.6372 54.4167L69.5352 54.4977L69.4452 54.5907C69.1182 54.8675 69.338 55.5905 69.659 56.507C70.0032 57.4895 70.2252 58.2222 69.9477 58.7232C69.8157 58.9595 69.5952 59.1095 69.2727 59.1815C69.1347 59.213 69.0027 59.2295 68.8805 59.2295C68.5055 59.2295 68.309 59.0795 68.2437 59.03C67.7015 58.613 67.6625 57.6387 67.6287 56.7785C67.6017 56.1155 67.5747 55.4382 67.3265 55.256C67.2758 55.2214 67.2153 55.204 67.154 55.2065C67.102 55.2072 67.0503 55.2147 67.0002 55.229C66.3575 55.403 66.3702 55.7142 66.5592 56.4372C66.7107 57.017 66.899 57.7355 66.161 58.232C65.8962 58.4097 65.6637 58.493 65.4275 58.493C65.024 58.493 64.7615 58.2597 64.4825 58.013C64.2935 57.845 64.0617 57.6402 63.833 57.6402C63.7355 57.6402 63.6305 57.674 63.512 57.743C63.2127 57.917 63.6732 59.0495 64.0797 60.0485C64.7082 61.5927 65.417 63.3297 64.9032 64.3752C64.7187 64.7502 64.3895 65.0052 63.9237 65.1357C63.7696 65.1801 63.6102 65.2036 63.4497 65.2055Z" fill="#F9C900"/>
<path d="M58.5515 55.7787C58.7007 55.649 58.8477 55.5147 58.9865 55.3655L59.1215 55.2192L59.3187 55.1982C59.711 55.1555 60.0087 55.0235 60.2292 54.7955C60.6935 54.3125 60.7017 53.54 60.6845 53.231L60.6695 53.003L60.8262 52.8357C61.0287 52.6205 61.142 52.3167 61.2417 52.0257C61.3767 51.6282 61.4532 51.4407 61.6257 51.3132L61.6482 51.2967L61.733 51.248L61.85 51.2157L61.9962 51.1992C62.4965 51.1992 62.6922 51.6462 62.8992 52.1195C63.215 52.844 63.5247 53.4012 64.3932 53.4395L65.5295 53.4905L64.7637 54.3305C63.1362 56.117 60.4205 56.588 58.946 56.711L57.3282 56.8445L58.5515 55.7787Z" fill="#A02E14"/>
<path d="M53.4177 57.7317C51.5652 57.7317 49.8905 57.3342 49.0557 57.0972L48.3822 56.9059L48.7467 56.3074C48.9455 55.9827 48.8435 55.5462 48.7535 55.1614C48.6237 54.6109 48.5645 54.3597 48.6912 54.1227L48.8562 53.8137L49.2042 53.8422C49.397 53.8572 49.5702 53.9547 49.9617 54.2209C50.2827 54.4384 50.7657 54.7662 51.2495 54.7662C51.3417 54.7662 51.4332 54.7542 51.521 54.7309L51.7475 54.6687L51.947 54.7947C52.142 54.9199 52.6625 55.2094 53.252 55.2094C53.3795 55.2094 53.5055 55.1952 53.624 55.1674C54.149 55.0474 54.584 54.6619 54.92 54.0229C55.22 53.4492 55.4952 53.1762 55.811 53.1387H55.8132C56.2557 53.1387 56.546 53.4507 56.9825 53.9584C57.3965 54.4384 57.8637 54.9799 58.4862 55.1532L59.459 55.4232L58.6865 56.0734C58.3655 56.3434 58.0632 56.5579 57.761 56.7289C56.5782 57.3942 55.1172 57.7317 53.4177 57.7317Z" fill="#F40B1C"/>
<path d="M59.0645 55.5349C58.9535 55.5349 58.8395 55.5297 58.718 55.5162C57.833 55.4262 57.23 54.7279 56.7455 54.1662C56.456 53.8294 56.1297 53.4507 55.8777 53.4507C55.6715 53.4732 55.4375 53.7154 55.199 54.1677C54.8202 54.8914 54.3162 55.3302 53.702 55.4727C53.5595 55.5064 53.4087 55.5229 53.255 55.5229C52.9235 55.5229 52.5762 55.4449 52.2215 55.2919L51.464 54.9642L52.0745 54.4092C52.1267 54.3625 52.1767 54.3134 52.2245 54.2622C52.5342 53.9254 52.6572 53.5782 52.5897 53.2294C52.484 52.6759 51.9462 52.2034 51.5142 51.9057L50.5002 51.2052L51.704 50.9472C53.7957 50.4972 56.0345 50.0089 58.1975 49.5252L59.3007 49.2784L58.7885 50.2864C58.5848 50.7052 58.5161 51.177 58.592 51.6364C58.7307 52.4809 59.2632 53.0802 59.918 53.1274C60.0618 53.1378 60.2064 53.1267 60.347 53.0944L61.0467 52.9399L60.9927 53.6539C60.9507 54.2322 60.7677 54.6904 60.4527 55.0167C60.119 55.3609 59.6517 55.5349 59.0645 55.5349Z" fill="#599306"/>
<path d="M45.767 59.8692L43.553 59.5902L45.68 58.8507C47.471 58.0579 47.7095 57.2959 47.7387 57.1512L47.801 56.8527L48.089 56.7544C48.1563 56.7322 48.2224 56.7064 48.287 56.6772L48.482 56.5857L48.6852 56.6554C48.824 56.7034 50.0802 57.1279 51.7602 57.3282L53.0277 57.4789L52.0287 58.2739C50.3675 59.5947 47.9172 59.8722 46.1532 59.8722L45.767 59.8692Z" fill="#A02E14"/>
<path d="M40.4127 60.3463C37.853 60.3463 36.227 59.3863 35.6465 58.9738L35.1762 58.6393L35.6285 58.1023C35.936 57.737 36.1587 57.491 36.44 57.4048L36.53 57.3823L36.6275 57.3755C36.9417 57.3755 37.2102 57.566 37.5215 57.788C37.9212 58.0715 38.3712 58.391 38.9067 58.391C39.1715 58.391 39.4392 58.316 39.7257 58.1623C39.9672 58.031 40.1697 57.8278 40.3257 57.5608L40.6167 57.0583L41.0922 57.3928C41.3937 57.6058 41.8745 57.8585 42.4482 57.8585C42.7505 57.8585 43.0505 57.7858 43.3422 57.6425C44.0397 57.2998 44.057 56.8288 44.0075 56.249L44.0037 56.204L44.3285 55.6093L44.9495 55.8268L45.0575 55.994C45.3275 56.423 45.6627 56.954 46.7855 56.954C46.9407 56.954 47.1095 56.9443 47.291 56.9225L48.4932 56.7778L47.7875 57.7618C47.3397 58.3858 46.166 59.2835 43.115 60.014C42.1925 60.2345 41.2827 60.3463 40.4127 60.3463Z" fill="#F40B1C"/>
<path d="M42.4452 58.1712C41.5977 58.1712 40.9587 57.7084 40.724 57.5097L40.472 57.2952L40.5507 56.9742C40.742 56.0307 40.421 54.8067 40.0047 54.0889L39.6312 53.4439L40.361 53.2992C43.2811 52.717 46.1977 52.117 49.1105 51.4992L50.8685 51.1264L51.0597 51.2614C51.6845 51.5937 52.7262 52.2702 52.8987 53.1694C52.9857 53.6232 52.8372 54.0619 52.4562 54.4759C52.0782 54.8869 51.68 55.0864 51.239 55.0864C50.7215 55.0864 50.2557 54.7999 49.784 54.4819C49.592 54.3507 49.301 54.1527 49.1517 54.1527C48.9147 54.3304 48.938 54.5712 49.0587 55.0879C49.1667 55.5484 49.289 56.0704 48.9965 56.5084C48.7632 56.8602 48.299 57.0897 47.5767 57.2104C47.2812 57.2592 47.0082 57.2847 46.7637 57.2847C45.4985 57.2847 45.0785 56.6187 44.801 56.1777C44.6112 55.8754 44.5385 55.8027 44.426 55.8027C44.369 55.8057 44.3412 55.8177 44.336 55.8252C44.291 55.8762 44.3082 56.0742 44.321 56.2182C44.363 56.7132 44.4275 57.4609 43.481 57.9259C43.1592 58.0862 42.8048 58.1701 42.4452 58.1712ZM64.478 53.7649C63.2735 53.7649 62.909 52.9294 62.615 52.2582C62.39 51.7422 62.2527 51.5127 62.03 51.5127C61.9811 51.5133 61.9325 51.5198 61.8852 51.5322C61.7405 51.5689 61.6505 51.8007 61.5402 52.1247C61.3505 52.6834 61.0902 53.4492 60.0627 53.4492C60.0087 53.4492 59.9532 53.4469 59.894 53.4417C58.967 53.3742 58.4165 52.5117 58.2815 51.6874C58.1345 50.7814 58.439 49.6759 59.4537 49.2522C64.559 48.0912 67.7562 47.3029 68.981 46.9032L69.2765 46.8057L69.5067 47.0172C69.845 47.3284 70.9482 48.4377 70.9137 49.6369C70.8957 50.2129 70.6145 50.7154 70.0775 51.1294C69.5705 51.5209 69.0935 51.7114 68.6195 51.7114C67.9197 51.7114 67.4315 51.3094 67.0017 50.9547C66.7655 50.7619 66.5247 50.5639 66.3695 50.5639C66.281 50.5789 66.203 50.5977 66.3507 51.2652C66.4782 51.8404 66.6357 52.5567 66.2382 53.0967C65.9592 53.4762 65.462 53.6914 64.7172 53.7537C64.6347 53.7612 64.5545 53.7649 64.478 53.7649Z" fill="#77A505"/>
<path d="M34.634 59.1544C34.46 59.1522 34.2895 59.1052 34.139 59.0179C33.5367 58.6872 33.4977 58.0729 33.4662 57.5779C33.425 56.9232 33.3327 56.8092 33.056 56.7792C32.825 56.7799 32.7185 56.9149 32.5347 57.2239C32.2812 57.6514 31.9347 58.2364 30.9657 58.2364C30.8682 58.2364 30.7617 58.2304 30.6455 58.2177C29.9337 58.1359 29.4095 57.8592 29.0855 57.3942C28.6347 56.7447 28.7142 55.9167 28.769 55.5919L28.8425 55.1644L29.276 55.1494C30.6417 55.1007 34.106 54.5314 39.5705 53.4559L39.89 53.3937L40.091 53.6487C40.481 54.1399 41.1327 55.6804 40.871 57.0102C40.742 57.6627 40.397 58.1562 39.8735 58.4389C39.542 58.6189 39.2232 58.7067 38.9007 58.7067C38.2715 58.7067 37.7967 58.3692 37.3775 58.0722C37.1135 57.8847 36.842 57.6897 36.635 57.6897C36.6001 57.6897 36.5655 57.695 36.5322 57.7054C36.3192 57.7714 36.0912 58.0429 35.8707 58.3054C35.4522 58.8019 35.1177 59.1544 34.6332 59.1544H34.634Z" fill="#599306"/>
<path d="M29.4507 47.8227C33.263 43.1419 42.344 32.2399 44.1755 31.6677C44.288 31.6332 44.417 31.6167 44.5707 31.6167C47.5662 31.6167 64.7382 38.7124 67.9932 41.0067L68.6622 41.5504L67.8237 41.9577C66.035 42.4324 56.6585 44.9007 47.6975 46.8904C38.813 48.8629 29.9862 50.4387 28.3077 50.7349L27.4287 50.5369C27.4287 50.5369 28.5357 48.9469 29.4507 47.8227Z" fill="#FCC683"/>
<path d="M68.66 41.5474L67.82 41.9599C66.035 42.4324 56.66 44.8999 47.6975 46.8874C38.81 48.8599 29.99 50.4424 28.31 50.7349L27.4325 50.5399C27.4325 50.5399 27.9425 49.7974 28.5575 48.9724C32.285 48.2674 37.4 47.2624 42.53 46.1224C51.17 44.2024 60.2 41.8399 62.435 41.2474C62.585 41.2099 62.72 41.1574 62.855 41.0899L63.4925 40.7824L62.9075 40.3099C62.8475 40.2649 62.8025 40.2274 62.7425 40.1824C60.1325 38.4049 49.835 33.9874 43.685 31.9324C43.88 31.7974 44.045 31.7074 44.1725 31.6699C44.285 31.6324 44.42 31.6174 44.57 31.6174C47.5625 31.6174 64.7375 38.7124 67.9925 41.0074L68.66 41.5474Z" fill="#F7BE7F"/>
<path d="M29.2662 55.5372C29.129 55.5372 29.0052 55.5244 28.8897 55.4989L28.7885 55.4689C28.208 55.1269 27.7625 54.2742 27.5127 53.0974C27.3492 52.3287 27.3005 51.5689 27.377 50.9584L27.4295 50.5369L27.857 50.4694C27.9297 50.4574 37.622 48.8044 47.63 46.5829C55.3377 44.8722 63.2075 42.8442 66.4977 41.9809C67.4255 41.7379 68.6622 41.5504 68.6622 41.5504L68.7695 41.8054C69.8225 43.9129 70.742 46.1817 69.569 47.0097C69.1077 47.3352 68.4867 47.4717 67.94 47.5917C67.7772 47.6269 67.6235 47.6607 67.4862 47.6974C66.0845 48.0724 64.6857 48.4039 63.3725 48.7114C59.4485 49.6332 55.5672 50.4664 51.9575 51.2307C48.9882 51.8607 45.893 52.4982 42.7572 53.1259C40.2366 53.6339 37.7121 54.1219 35.1837 54.5899L34.8387 54.6537C33.3072 54.9357 31.739 55.2252 30.1812 55.4284C30.1092 55.4374 30.032 55.4509 29.9532 55.4637C29.744 55.4982 29.5077 55.5372 29.2662 55.5372Z" fill="#FFA963"/>
<path d="M69.5675 47.0075C69.11 47.3375 68.4875 47.4725 67.94 47.5925C67.775 47.63 67.625 47.66 67.49 47.6975C66.0875 48.0725 64.685 48.4025 63.3725 48.71C59.45 49.6325 55.565 50.465 51.9575 51.23C48.9875 51.86 45.89 52.4975 42.755 53.1275C39.77 53.7275 37.3625 54.1925 35.1875 54.59L34.8425 54.65C33.305 54.935 31.7375 55.2275 30.185 55.43C30.11 55.4375 30.035 55.4525 29.9525 55.46C29.7425 55.4975 29.51 55.535 29.27 55.535C29.1275 55.535 29.0075 55.5275 28.8875 55.4975L28.79 55.4675C28.5125 55.31 28.265 55.0325 28.0625 54.6575L28.2275 54.635C28.31 54.62 28.385 54.605 28.46 54.5975C30.0125 54.395 31.5875 54.1025 33.1175 53.825L33.4625 53.7575C35.6375 53.36 38.045 52.895 41.03 52.295C44.1725 51.665 47.2625 51.0275 50.2325 50.3975C53.84 49.64 57.725 48.8 61.6475 47.885C62.96 47.5775 64.3625 47.24 65.765 46.865C65.9 46.8275 66.0575 46.7975 66.215 46.76C66.7625 46.64 67.385 46.505 67.8425 46.1825C68.8775 45.455 68.2925 43.625 67.43 41.765C68.0825 41.6375 68.66 41.5475 68.66 41.5475L68.7725 41.8025C69.8225 43.91 70.745 46.1825 69.5675 47.0075Z" fill="#F49853"/>
</svg>
