<svg width="15" height="15" viewBox="0 0 15 15" fill="none" xmlns="http://www.w3.org/2000/svg">
<path fill-rule="evenodd" clip-rule="evenodd" d="M9.68412 1.78327C9.37944 0.738912 7.88282 0.738912 7.57815 1.78327C7.22773 2.98557 6.87558 3.66742 6.4026 4.1404C5.92962 4.61338 5.24777 4.96552 4.04547 5.31594C3.00112 5.62062 3.00112 7.11724 4.04547 7.42191C5.24777 7.77233 5.92962 8.12448 6.4026 8.59746C6.87558 9.07044 7.22773 9.75229 7.57815 10.9546C7.88282 11.9989 9.37944 11.9989 9.68412 10.9546C10.0345 9.75229 10.3867 9.07044 10.8597 8.59746C11.3326 8.12448 12.0145 7.77233 13.2168 7.42191C14.2611 7.11724 14.2611 5.62062 13.2168 5.31594C12.0145 4.96552 11.3326 4.61338 10.8597 4.1404C10.3867 3.66742 10.0345 2.98557 9.68412 1.78327ZM7.62303 5.36082C8.03905 4.94567 8.36185 4.46233 8.63113 3.90391C8.90042 4.46233 9.22322 4.94567 9.63924 5.36082C10.0553 5.77684 10.5377 6.09964 11.0962 6.36893C10.5377 6.63822 10.0553 6.96102 9.63924 7.37703C9.22322 7.79305 8.90042 8.27552 8.63113 8.83395C8.36185 8.27552 8.03905 7.79305 7.62303 7.37703C7.20788 6.96102 6.72454 6.63822 6.16611 6.36893C6.72454 6.09964 7.20788 5.77684 7.62303 5.36082Z" fill="#ECEDEB" stroke="white" stroke-width="0.2"/>
<path fill-rule="evenodd" clip-rule="evenodd" d="M4.18791 11.3111C3.9635 11.6633 3.80469 11.9671 3.71061 12.251C3.65969 12.4021 3.62862 12.5479 3.61567 12.6921C3.60618 12.7922 3.60618 12.8923 3.61567 12.9924C3.62862 13.1366 3.66055 13.2824 3.71061 13.4352C3.80469 13.7183 3.9635 14.0213 4.18791 14.3734C4.21294 14.4131 4.23797 14.4528 4.26472 14.4925C4.45029 14.7747 4.09124 15.1347 3.81073 14.9491C3.77016 14.9223 3.73046 14.8964 3.69162 14.8714C3.34034 14.6461 3.03739 14.4865 2.75516 14.3924C2.60411 14.3415 2.45911 14.3104 2.31584 14.2974C2.21658 14.288 2.11732 14.288 2.0172 14.2974C1.87393 14.3104 1.72893 14.3415 1.57789 14.3924C1.29565 14.4865 0.992702 14.6461 0.641419 14.8714C0.60258 14.8964 0.562877 14.9223 0.523174 14.9491C0.241803 15.1347 -0.116385 14.7747 0.0691824 14.4925C0.0950754 14.4519 0.120968 14.4131 0.145998 14.3734C0.366952 14.0256 0.5249 13.7252 0.618115 13.4447C0.668175 13.2945 0.70011 13.1504 0.713057 13.008C0.722551 12.9018 0.722551 12.7974 0.712193 12.6912C0.697521 12.5488 0.664723 12.4047 0.612937 12.2545C0.517133 11.9757 0.356596 11.6771 0.131326 11.331C0.106296 11.2921 0.0795396 11.2533 0.0527834 11.2136C-0.135373 10.9331 0.218499 10.5688 0.501597 10.7518C0.542163 10.7777 0.581865 10.8036 0.621568 10.8278C0.979756 11.0522 1.28702 11.2101 1.57357 11.3025C1.72634 11.3517 1.87307 11.3819 2.01893 11.3931C2.11301 11.4009 2.20622 11.4009 2.3003 11.3922C2.44617 11.3793 2.59289 11.3482 2.7448 11.2973C3.03049 11.2024 3.33689 11.041 3.69162 10.8131C3.73046 10.7881 3.77016 10.7622 3.81073 10.7354C4.09124 10.5499 4.45029 10.9098 4.26472 11.192C4.24919 11.2153 4.23451 11.2377 4.21984 11.2602C4.20948 11.2774 4.19826 11.2938 4.18791 11.3111Z" fill="#F0F0F0"/>
</svg>
