<svg width="16" height="18" viewBox="0 0 16 18" fill="none" xmlns="http://www.w3.org/2000/svg">
<path fill-rule="evenodd" clip-rule="evenodd" d="M5.9375 6.75C5.9375 5.61091 6.86091 4.6875 8 4.6875C9.13909 4.6875 10.0625 5.61091 10.0625 6.75C10.0625 7.88909 9.13909 8.8125 8 8.8125C6.86091 8.8125 5.9375 7.88909 5.9375 6.75ZM8 5.8125C7.48223 5.8125 7.0625 6.23223 7.0625 6.75C7.0625 7.26777 7.48223 7.6875 8 7.6875C8.51777 7.6875 8.9375 7.26777 8.9375 6.75C8.9375 6.23223 8.51777 5.8125 8 5.8125Z" fill="white"/>
<path fill-rule="evenodd" clip-rule="evenodd" d="M8 9.1875C7.10318 9.1875 6.26346 9.36806 5.62712 9.68622C5.02443 9.98757 4.4375 10.5079 4.4375 11.25L4.4374 11.2969C4.43625 11.6796 4.43432 12.3241 5.04517 12.7663C5.32864 12.9715 5.70267 13.1024 6.16602 13.1857C6.63365 13.2699 7.23291 13.3125 8 13.3125C8.76709 13.3125 9.36635 13.2699 9.83398 13.1857C10.2973 13.1024 10.6714 12.9715 10.9548 12.7663C11.5657 12.3241 11.5637 11.6796 11.5626 11.2969L11.5625 11.25C11.5625 10.5079 10.9756 9.98757 10.3729 9.68622C9.73654 9.36806 8.89682 9.1875 8 9.1875ZM5.5625 11.25C5.5625 11.1636 5.64714 10.934 6.13024 10.6925C6.57969 10.4677 7.23996 10.3125 8 10.3125C8.76004 10.3125 9.42031 10.4677 9.86976 10.6925C10.3529 10.934 10.4375 11.1636 10.4375 11.25C10.4375 11.7033 10.4086 11.7729 10.2952 11.855C10.2036 11.9213 10.0152 12.0101 9.63477 12.0785C9.25865 12.1462 8.73291 12.1875 8 12.1875C7.26709 12.1875 6.74135 12.1462 6.36523 12.0785C5.98483 12.0101 5.79636 11.9213 5.70483 11.855C5.59136 11.7729 5.5625 11.7033 5.5625 11.25Z" fill="white"/>
<path fill-rule="evenodd" clip-rule="evenodd" d="M5.54254 1.53834C6.62549 1.16744 7.29686 0.9375 8 0.9375C8.70314 0.9375 9.37451 1.16744 10.4575 1.53834L11.003 1.7251C12.114 2.1054 12.9714 2.39889 13.5852 2.64824C13.8944 2.77384 14.1602 2.8955 14.3743 3.0198C14.5802 3.13943 14.7869 3.28863 14.9273 3.48866C15.066 3.68637 15.1378 3.92943 15.1829 4.16341C15.2298 4.40667 15.258 4.69848 15.2763 5.03352C15.3125 5.6988 15.3125 6.6102 15.3125 7.79236V8.99352C15.3125 13.5693 11.8565 15.7631 9.80125 16.6609L9.78092 16.6698C9.52608 16.7812 9.28653 16.8858 9.0113 16.9563C8.7207 17.0307 8.41195 17.0625 8 17.0625C7.58805 17.0625 7.2793 17.0307 6.9887 16.9563C6.71346 16.8858 6.47392 16.7812 6.21907 16.6698L6.19875 16.6609C4.14352 15.7631 0.6875 13.5693 0.6875 8.99352V7.79243C0.6875 6.61033 0.6875 5.69877 0.723724 5.03352C0.741968 4.69848 0.770234 4.40667 0.817111 4.16341C0.8622 3.92943 0.933953 3.68637 1.07272 3.48866C1.21312 3.28863 1.41976 3.13943 1.62574 3.0198C1.83978 2.8955 2.10559 2.77384 2.41477 2.64824C3.02855 2.39889 3.88596 2.1054 4.99696 1.7251L5.54254 1.53834ZM8 2.0625C7.50669 2.0625 7.02136 2.22123 5.81046 2.63572L5.38085 2.78278C4.24641 3.1711 3.41907 3.45453 2.83819 3.69052C2.54825 3.8083 2.33818 3.90701 2.19072 3.99265C2.11792 4.03493 2.06775 4.06981 2.03425 4.09704C2.00585 4.12013 1.99502 4.13321 1.99347 4.13511C1.99202 4.13747 1.9827 4.15305 1.96957 4.1899C1.95458 4.23198 1.93797 4.29232 1.92179 4.37629C1.88903 4.54627 1.86421 4.77976 1.84706 5.09469C1.81271 5.72558 1.8125 6.60625 1.8125 7.81249V8.99352C1.8125 12.8748 4.71492 14.7851 6.64909 15.63C6.9277 15.7517 7.08859 15.8206 7.2677 15.8664C7.43876 15.9102 7.6475 15.9375 8 15.9375C8.3525 15.9375 8.56124 15.9102 8.7323 15.8664C8.91141 15.8206 9.0723 15.7517 9.35091 15.63C11.2851 14.7851 14.1875 12.8748 14.1875 8.99352V7.81249C14.1875 6.60625 14.1873 5.72558 14.1529 5.09469C14.1358 4.77976 14.111 4.54627 14.0782 4.37629C14.062 4.29232 14.0454 4.23198 14.0304 4.1899C14.0173 4.15303 14.008 4.13745 14.0065 4.13511C14.005 4.13319 13.9941 4.12012 13.9657 4.09704C13.9322 4.06981 13.8821 4.03493 13.8093 3.99265C13.6618 3.90701 13.4517 3.8083 13.1618 3.69052C12.5809 3.45454 11.7536 3.1711 10.6191 2.78278L10.1895 2.63572C8.97864 2.22123 8.49331 2.0625 8 2.0625Z" fill="white"/>
</svg>
