<svg width="16" height="14" viewBox="0 0 16 14" fill="none" xmlns="http://www.w3.org/2000/svg">
<path fill-rule="evenodd" clip-rule="evenodd" d="M14.0681 10.155C14.2188 9.3975 14.25 8.41 14.25 7C14.25 5.59 14.2188 4.6025 14.0681 3.845C13.9331 3.15125 13.735 2.85938 13.5281 2.68687C13.2881 2.48687 12.8444 2.28625 11.905 2.15938C10.9481 2.02875 9.70375 2 8 2C6.29688 2 5.05188 2.02875 4.095 2.15938C3.15562 2.28625 2.71188 2.48687 2.47188 2.68687C2.265 2.85938 2.06687 3.15125 1.93187 3.845C1.78125 4.6025 1.75 5.59 1.75 7C1.75 8.41 1.78125 9.3975 1.93187 10.155C2.06687 10.8488 2.265 11.1406 2.47188 11.3131C2.71188 11.5131 3.15562 11.7137 4.095 11.84C5.05188 11.9712 6.29688 12 8 12C9.70375 12 10.9481 11.9712 11.905 11.84C12.8444 11.7137 13.2881 11.5131 13.5281 11.3131C13.735 11.1406 13.9331 10.8488 14.0681 10.155ZM8 13.25C14.875 13.25 15.5 12.7294 15.5 7C15.5 1.27063 14.875 0.75 8 0.75C1.125 0.75 0.5 1.27063 0.5 7C0.5 12.7294 1.125 13.25 8 13.25Z" fill="#60635E"/>
<path fill-rule="evenodd" clip-rule="evenodd" d="M1.75 3.875H14.25V6.375H1.75V3.875Z" fill="#60635E"/>
</svg>
